<?xml version="1.0" encoding="UTF-8"?>
<svg version="1.1" xmlns="http://www.w3.org/2000/svg" width="192" height="192">
<path d="M0 0 C1.15075705 -0.00282738 2.30151409 -0.00565475 3.48714256 -0.00856781 C9.57338052 -0.02349008 15.65959519 -0.03276434 21.74584961 -0.03710938 C27.99259223 -0.04259361 34.23911688 -0.06664103 40.48579121 -0.09508133 C45.32714951 -0.11380525 50.1684562 -0.11891841 55.00984764 -0.12044525 C57.31127302 -0.12344868 59.612698 -0.13139783 61.9140873 -0.14463043 C98.48715605 -0.33997273 98.48715605 -0.33997273 111.26171875 11.3125 C118.74180055 19.28758721 122.05465346 26.77742278 122.08966064 37.75469971 C122.09537079 38.83392197 122.10108093 39.91314423 122.10696411 41.02507019 C122.1086409 42.77851494 122.1086409 42.77851494 122.11035156 44.56738281 C122.11531647 45.81040665 122.12028137 47.05343048 122.12539673 48.3341217 C122.13747109 51.73310548 122.14495448 55.13202801 122.14940739 58.53102589 C122.15234734 60.65884728 122.15645385 62.7866634 122.16091156 64.91448212 C122.17457146 71.58441015 122.18424549 78.254326 122.18811345 84.92426705 C122.19259068 92.60065321 122.21012924 100.276861 122.23911405 107.95319295 C122.26079119 113.90246922 122.27082094 119.85169553 122.27215457 125.80101085 C122.27319829 129.34705785 122.27901301 132.89293684 122.29697418 136.43894196 C122.31664793 140.39978176 122.31214191 144.36040176 122.30566406 148.32128906 C122.31487885 149.4821553 122.32409363 150.64302155 122.33358765 151.83906555 C122.27202455 163.89379908 119.58227178 172.4876738 111.0625 181.11328125 C100.67229051 190.7277973 89.80216905 192.50941326 76.01049805 192.4777832 C74.2671669 192.4854496 74.2671669 192.4854496 72.48861694 192.49327087 C68.6668373 192.50711042 64.84523915 192.50621418 61.0234375 192.50390625 C59.02811757 192.50681213 57.03279756 192.50972342 55.03747874 192.513313 C48.76918953 192.52437495 42.50096025 192.52486472 36.23266602 192.51879883 C29.79620169 192.5127653 23.35995632 192.52506176 16.92352933 192.5463689 C11.37075061 192.56406543 5.81804107 192.56997354 0.26523525 192.56673115 C-3.03937968 192.56493047 -6.34380526 192.56877325 -9.64840126 192.58144569 C-13.34039499 192.59386609 -17.03189041 192.58698418 -20.72387695 192.57543945 C-22.33511192 192.58690506 -22.33511192 192.58690506 -23.97889709 192.59860229 C-36.59814185 192.51195866 -47.62900783 189.65967657 -57.2734375 181.26953125 C-67.92005872 170.42390776 -69.19568189 156.69227313 -69.21191406 142.26757812 C-69.21687897 141.19971069 -69.22184387 140.13184326 -69.22695923 139.03161621 C-69.24150409 135.51586245 -69.24837119 132.00015385 -69.25390625 128.484375 C-69.25814732 126.67186501 -69.25814732 126.67186501 -69.26247406 124.82273865 C-69.27743821 118.42414127 -69.28668431 112.02556626 -69.29101562 105.62695312 C-69.29648608 99.05510738 -69.32049222 92.4834703 -69.34898758 85.91168976 C-69.36772155 80.82579982 -69.37282533 75.73995899 -69.3743515 70.65403748 C-69.37735594 68.23342248 -69.38530865 65.81280789 -69.39853668 63.39222717 C-69.585493 26.54170114 -69.585493 26.54170114 -57.73828125 12.453125 C-40.6769137 -1.83081063 -21.13705559 0.03517657 0 0 Z " fill="#6CB6A0" transform="translate(70.05078125,-0.203125)"/>
<path d="M0 0 C20.79 0 41.58 0 63 0 C59.96551724 9.10344828 59.96551724 9.10344828 57 12 C52.62568106 12.52036508 48.38417991 12.34211809 44 12 C44.72662637 15.25498957 45.6396158 17.60415938 48 20 C52.67379692 21.04161987 57.22515491 21.10213572 62 21 C63 24 63 24 62.00390625 26.26171875 C61.29041016 27.46248047 61.29041016 27.46248047 60.5625 28.6875 C60.08941406 29.49574219 59.61632812 30.30398437 59.12890625 31.13671875 C58.75636719 31.75160156 58.38382813 32.36648437 58 33 C54.7 33 51.4 33 48 33 C47.9175 33.86625 47.835 34.7325 47.75 35.625 C46.11518286 42.98167715 40.85526906 47.65257278 35 52 C30.58684053 54.59320268 26.06728547 55.48293005 21 56 C25.23003046 61.93983016 29.88439812 67.25089322 34.9375 72.5 C50.53655263 88.79663158 50.53655263 88.79663158 52 94 C36.4836665 95.36908825 36.4836665 95.36908825 30.68359375 92.171875 C27.43550234 89.24810866 24.81735353 86.42392822 22.63671875 82.625 C20.41701379 79.06499586 17.63805597 76.21429431 14.75 73.1875 C13.58269859 71.94460625 12.41602733 70.70112036 11.25 69.45703125 C10.41082031 68.56491943 10.41082031 68.56491943 9.5546875 67.65478516 C7.60236588 65.57676444 5.66204239 63.4901969 3.75 61.375 C3.22921875 60.80523437 2.7084375 60.23546875 2.171875 59.6484375 C-0.10081817 56.45151577 -0.1187047 53.07191954 -0.0625 49.25 C-0.05347656 48.45078125 -0.04445313 47.6515625 -0.03515625 46.828125 C-0.02355469 46.22484375 -0.01195313 45.6215625 0 45 C0.56920166 44.98018066 1.13840332 44.96036133 1.72485352 44.93994141 C4.33781712 44.84388242 6.95006802 44.73453593 9.5625 44.625 C10.90538086 44.57859375 10.90538086 44.57859375 12.27539062 44.53125 C17.50725745 44.30127783 22.03344876 43.67595556 27 42 C26.67 41.01 26.34 40.02 26 39 C20.87881202 38.31717494 16.04251876 37.98181938 10.875 38.125 C5.72345684 38.16442508 2.41494352 37.68735693 -2 35 C-3.32421875 33.18359375 -3.32421875 33.18359375 -4 31 C-3.13671875 28.67578125 -3.13671875 28.67578125 -1.6875 26.3125 C-1.21699219 25.52488281 -0.74648437 24.73726562 -0.26171875 23.92578125 C1 22 1 22 2 21 C4.07262076 20.91232888 6.14820294 20.89304127 8.22265625 20.90234375 C9.48271484 20.90556641 10.74277344 20.90878906 12.04101562 20.91210938 C13.38151109 20.92046597 14.72200588 20.92893093 16.0625 20.9375 C17.40689942 20.9425134 18.7513006 20.94707658 20.09570312 20.95117188 C23.39717941 20.96300512 26.69856803 20.97949029 30 21 C28.1919566 16.63216311 25.78535215 15.1673371 21.69189453 13.02587891 C16.86804715 11.18751443 12.04824754 11.21652002 6.9375 11.1875 C5.35291992 11.14979492 5.35291992 11.14979492 3.73632812 11.11132812 C1.1571765 11.05297628 -1.42029843 11.0163171 -4 11 C-2.78322054 7.2627488 -1.46233512 3.6558378 0 0 Z " fill="#C3A353" transform="translate(67,49)"/>
<path d="M0 0 C2.3387357 -0.00389793 4.67747071 -0.00823481 7.01620483 -0.01298523 C11.88908192 -0.02039713 16.76188647 -0.02019183 21.63476562 -0.01489258 C27.84214953 -0.00908776 34.04923604 -0.02607831 40.25657082 -0.04923725 C45.07648417 -0.06404639 49.89632693 -0.06483684 54.716259 -0.06172752 C57.0037228 -0.06223657 59.29119099 -0.0673948 61.57863235 -0.07753944 C95.53220399 -0.20974394 95.53220399 -0.20974394 108.4609375 9.30078125 C110.2578125 11.4921875 110.2578125 11.4921875 111.4609375 13.30078125 C108.59452492 12.8597947 107.17375634 12.09374367 104.7734375 10.36328125 C97.49975269 5.83438316 89.31869854 6.00613572 80.96875 6.02612305 C79.29598747 6.01845665 79.29598747 6.01845665 77.58943176 6.01063538 C73.92154491 5.99679566 70.25384729 5.99769279 66.5859375 6 C64.01635672 5.99610835 61.44677658 5.99177272 58.87719727 5.98701477 C53.49411664 5.97956337 48.11110832 5.97969505 42.72802734 5.98510742 C36.54954749 5.9911253 30.37129664 5.97888499 24.19285583 5.95753735 C18.20477693 5.93762506 12.21681558 5.93476848 6.22869873 5.93827248 C3.70285507 5.93776307 1.17700745 5.93259784 -1.34881592 5.92246056 C-28.80821473 5.08951689 -28.80821473 5.08951689 -53.296875 15.72265625 C-62.16280331 24.72224177 -63.65529672 38.21262038 -63.72851562 50.22290039 C-63.73680893 50.97050629 -63.74510223 51.71811218 -63.75364685 52.4883728 C-63.77092492 54.09843503 -63.78612399 55.70852068 -63.79942322 57.31862068 C-63.82069157 59.88161876 -63.84769744 62.44450265 -63.87609863 65.00743103 C-63.93548592 70.45933543 -63.9876945 75.91129623 -64.0390625 81.36328125 C-64.09872669 87.66448997 -64.16146913 93.96564349 -64.23094177 100.26675224 C-64.25707121 102.76506074 -64.27815665 105.26337631 -64.2989502 107.76173401 C-64.39365798 117.31016388 -64.78358137 126.78016254 -65.5390625 136.30078125 C-66.1990625 136.30078125 -66.8590625 136.30078125 -67.5390625 136.30078125 C-67.8690625 107.59078125 -68.1990625 78.88078125 -68.5390625 49.30078125 C-68.8690625 49.30078125 -69.1990625 49.30078125 -69.5390625 49.30078125 C-69.03484003 35.28687395 -67.79959326 23.60382159 -58.5390625 12.30078125 C-42.19165584 -2.10487887 -20.42571985 -0.0143326 0 0 Z " fill="#A4DECF" transform="translate(70.5390625,-0.30078125)"/>
<path d="M0 0 C0.66 0 1.32 0 2 0 C2.02712066 1.43739513 2.04645067 2.87493863 2.0625 4.3125 C2.07410156 5.11300781 2.08570313 5.91351563 2.09765625 6.73828125 C1.96623956 9.78189178 1.48123244 11.52537487 -0.70703125 13.68359375 C-1.40183594 14.26238281 -2.09664062 14.84117187 -2.8125 15.4375 C-3.53050781 16.04980469 -4.24851563 16.66210938 -4.98828125 17.29296875 C-5.65214844 17.85628906 -6.31601563 18.41960937 -7 19 C-9.42072212 21.08136655 -9.42072212 21.08136655 -11 23 C-11 23.99 -11 24.98 -11 26 C-11.95712891 26.39832031 -11.95712891 26.39832031 -12.93359375 26.8046875 C-13.75988281 27.15789062 -14.58617187 27.51109375 -15.4375 27.875 C-16.26121094 28.22304687 -17.08492187 28.57109375 -17.93359375 28.9296875 C-20.15746715 29.8244937 -20.15746715 29.8244937 -21 32 C-26.7257768 33.51056503 -32.76754903 33.14769486 -38.64575195 33.14526367 C-39.81235352 33.14862228 -40.97895508 33.1519809 -42.1809082 33.15544128 C-46.03337675 33.1649318 -49.88580174 33.16689346 -53.73828125 33.16796875 C-55.74268278 33.17037005 -57.74708432 33.17277316 -59.75148553 33.17542917 C-66.05266999 33.18355947 -72.35384019 33.18601472 -78.6550293 33.18530273 C-85.13745111 33.18470245 -91.61978958 33.19524769 -98.10219032 33.2110464 C-103.68287682 33.22415874 -109.26353621 33.22948508 -114.84423798 33.22884732 C-118.17056422 33.2285934 -121.49680004 33.23231765 -124.8231144 33.24202538 C-128.53750092 33.25185059 -132.25167431 33.24893703 -135.96606445 33.24291992 C-137.05572006 33.24853943 -138.14537567 33.25415894 -139.26805115 33.25994873 C-145.46793632 33.23449854 -151.05079975 32.83035639 -157 31 C-157.33 30.01 -157.66 29.02 -158 28 C-158.66 27.67 -159.32 27.34 -160 27 C-162 26 -162 26 -163 23 C-161.35 23 -159.7 23 -158 23 C-158 23.66 -158 24.32 -158 25 C-156.82244141 24.98259766 -156.82244141 24.98259766 -155.62109375 24.96484375 C-154.57050781 24.95582031 -153.51992187 24.94679687 -152.4375 24.9375 C-151.40496094 24.92589844 -150.37242187 24.91429687 -149.30859375 24.90234375 C-146 25 -146 25 -142.92468262 25.49603271 C-138.22159848 26.0999543 -133.6324081 26.15540169 -128.89648438 26.16113281 C-127.40953568 26.16858017 -127.40953568 26.16858017 -125.89254761 26.17617798 C-122.62627454 26.19073207 -119.36005011 26.19759176 -116.09375 26.203125 C-114.97150528 26.20595238 -113.84926056 26.20877975 -112.69300842 26.21169281 C-106.74943813 26.22666134 -100.80589195 26.23590445 -94.86230469 26.24023438 C-88.75778281 26.24570311 -82.65348577 26.26970423 -76.54903412 26.29820633 C-71.82518903 26.31694282 -67.10139679 26.32204423 -62.3775177 26.32357025 C-60.12912269 26.32657453 -57.8807281 26.33452665 -55.63237 26.34775543 C-30.91225768 26.98648806 -30.91225768 26.98648806 -9.30078125 16.5078125 C-4.80614828 11.77542816 -2.44279092 5.97727159 0 0 Z " fill="#73A79A" transform="translate(185,159)"/>
<path d="M0 0 C5.59322034 2.31024318 5.59322034 2.31024318 7.4375 5.4375 C8.05319529 8.24233409 7.92301944 9.32522862 7 12 C5.58984375 14.140625 5.58984375 14.140625 3.9375 16.25 C3.38964844 16.95640625 2.84179688 17.6628125 2.27734375 18.390625 C1.85582031 18.92171875 1.43429688 19.4528125 1 20 C3.475 20.99 3.475 20.99 6 22 C7.11929897 27.90175822 7.34590497 30.71221282 4 36 C1.3984375 37.94921875 1.3984375 37.94921875 -1.625 39.6875 C-7.32306452 43.25654162 -11.0114899 47.18139949 -14.96484375 52.58203125 C-17.72155229 55.85727614 -20.61463242 57.45936875 -24.5625 59 C-27.07017951 60.02879159 -28.90709098 61.29466672 -31 63 C-30.42415568 65.38564077 -29.77772405 67.66682784 -29 70 C-28.01 70.33 -27.02 70.66 -26 71 C-24.39453125 72.62890625 -24.39453125 72.62890625 -22.8125 74.5625 C-22.28269531 75.20316406 -21.75289062 75.84382813 -21.20703125 76.50390625 C-20.80871094 76.99761719 -20.41039063 77.49132812 -20 78 C-20.33 78.66 -20.66 79.32 -21 80 C-26.58471354 74.52926021 -31.94223089 68.96139039 -37 63 C-37.76376953 62.12794922 -37.76376953 62.12794922 -38.54296875 61.23828125 C-42 57.23897059 -42 57.23897059 -42 55 C-41.29875 54.85304687 -40.5975 54.70609375 -39.875 54.5546875 C-30.30997996 52.293392 -23.65283391 48.07547701 -18 40 C-16.8141203 37.36046131 -15.90331164 34.75747763 -15 32 C-14.32453125 32.020625 -13.6490625 32.04125 -12.953125 32.0625 C-10.11063064 31.99677759 -7.72905671 31.81700601 -5 31 C-2.4988683 28.14066602 -1 24.82582591 -1 21 C-2.44632813 21.01353516 -2.44632813 21.01353516 -3.921875 21.02734375 C-14.07616221 20.78902885 -14.07616221 20.78902885 -16.8203125 18.4453125 C-18.17810748 16.02139702 -19 13.79924195 -19 11 C-18.13117188 11.04382812 -17.26234375 11.08765625 -16.3671875 11.1328125 C-12.67858839 11.1245606 -9.56892657 10.96102768 -6 10 C-3.13430907 7.01214818 -1.5213448 3.82767572 0 0 Z " fill="#4F907A" transform="translate(130,50)"/>
<path d="M0 0 C0.97582031 0.00902344 1.95164063 0.01804688 2.95703125 0.02734375 C4.06111328 0.04474609 4.06111328 0.04474609 5.1875 0.0625 C4.8575 1.0525 4.5275 2.0425 4.1875 3.0625 C1.31439057 3.82188584 -1.45842747 4.41554469 -4.375 4.9375 C-12.03578942 6.47506073 -18.49986064 7.80339225 -23.5625 14.3125 C-23.975 15.22 -24.3875 16.1275 -24.8125 17.0625 C-25.12703125 17.74570312 -25.4415625 18.42890625 -25.765625 19.1328125 C-26.46936968 20.68210115 -27.1579872 22.23834197 -27.83203125 23.80078125 C-28.68136894 25.76001043 -29.58586238 27.69515392 -30.5 29.625 C-32.88183172 35.8631307 -32.96161253 42.3674505 -33.00195312 48.98461914 C-33.01024643 49.73222504 -33.01853973 50.47983093 -33.02708435 51.25009155 C-33.04436242 52.86015378 -33.05956149 54.47023943 -33.07286072 56.08033943 C-33.09412907 58.64333751 -33.12113494 61.2062214 -33.14953613 63.76914978 C-33.20892342 69.22105418 -33.261132 74.67301498 -33.3125 80.125 C-33.37216419 86.42620872 -33.43490663 92.72736224 -33.50437927 99.02847099 C-33.53050871 101.52677949 -33.55159415 104.02509506 -33.5723877 106.52345276 C-33.66709548 116.07188263 -34.05701887 125.54188129 -34.8125 135.0625 C-35.4725 135.0625 -36.1325 135.0625 -36.8125 135.0625 C-37.1425 106.3525 -37.4725 77.6425 -37.8125 48.0625 C-38.1425 48.0625 -38.4725 48.0625 -38.8125 48.0625 C-38.30827753 34.0485927 -37.07303076 22.36554034 -27.8125 11.0625 C-19.70315849 3.91638686 -10.85931929 -0.13083517 0 0 Z " fill="#9DDCCB" transform="translate(39.8125,0.9375)"/>
<path d="M0 0 C0.33 0.66 0.66 1.32 1 2 C0.34 1.67 -0.32 1.34 -1 1 C-0.67 0.67 -0.34 0.34 0 0 Z M-9 8 C-7.02 8.99 -7.02 8.99 -5 10 C-10.97519624 14.220063 -16.15803287 16.36542467 -23.50830078 16.6809082 C-24.23853518 16.7136424 -24.96876957 16.74637659 -25.72113228 16.78010273 C-35.61812129 17.17724767 -45.5264666 17.1643868 -55.4296875 17.16796875 C-57.55705791 17.17119329 -59.68442811 17.17455819 -61.8117981 17.17805481 C-66.24416619 17.18399848 -70.67651493 17.18589955 -75.10888672 17.18530273 C-80.73513339 17.18520114 -86.36125382 17.19887268 -91.98747063 17.21607494 C-96.37346954 17.22729305 -100.75943881 17.22921899 -105.14545059 17.22869301 C-107.21748414 17.22985766 -109.28951886 17.23419197 -111.36153793 17.24202538 C-121.551195 17.27696046 -131.64725746 17.12383712 -141.79345703 16.1105957 C-142.99688405 15.99423028 -142.99688405 15.99423028 -144.22462273 15.87551403 C-149.74801302 15.25198698 -149.74801302 15.25198698 -152 13 C-151.41913635 13.00276538 -150.83827271 13.00553076 -150.23980713 13.00837994 C-135.98616587 13.07516313 -121.73253875 13.12453149 -107.47877502 13.15543652 C-100.58523882 13.17078617 -93.69180818 13.19164206 -86.79833984 13.22631836 C-80.12632833 13.25986414 -73.45444822 13.27693139 -66.78234863 13.28463173 C-64.25669649 13.29010826 -61.73104923 13.30079874 -59.20544434 13.31719017 C-46.50098637 13.39624628 -34.00218179 13.153556 -21.37890625 11.60668945 C-20.35836655 11.48174449 -19.33782684 11.35679953 -18.28636169 11.22806835 C-13.1177492 10.76386061 -13.1177492 10.76386061 -9 8 Z " fill="#458575" transform="translate(180,174)"/>
<path d="M0 0 C1.91145604 1.60461705 2.91104348 2.46520185 3.328125 4.97265625 C3.11111111 10.77777778 3.11111111 10.77777778 2 13 C1.34 13 0.68 13 0 13 C0 13.66 0 14.32 0 15 C-3 17 -3 17 -5.4765625 16.8046875 C-6.72566406 16.90136719 -6.72566406 16.90136719 -8 17 C-9.89751284 19.21547766 -9.89751284 19.21547766 -11.375 22.125 C-16.11297685 30.07949131 -20.62457806 33.5683886 -29.109375 36.98828125 C-31.2882346 37.93798813 -31.2882346 37.93798813 -32.5625 40.75 C-32.7790625 41.86375 -32.7790625 41.86375 -33 43 C-37.28904235 41.4114658 -39.32345526 38.56872632 -42 35 C-42 34.34 -42 33.68 -42 33 C-41.29875 32.85304687 -40.5975 32.70609375 -39.875 32.5546875 C-30.30997996 30.293392 -23.65283391 26.07547701 -18 18 C-16.8141203 15.36046131 -15.90331164 12.75747763 -15 10 C-14.33613281 10.03222656 -13.67226562 10.06445312 -12.98828125 10.09765625 C-10.08862415 10.05955857 -7.7692523 9.88785188 -5 9 C-2.65113519 6.26395967 -1.28653153 3.3517532 0 0 Z " fill="#40755C" transform="translate(130,72)"/>
<path d="M0 0 C0.33 0 0.66 0 1 0 C0.93148331 0.64454636 0.86296661 1.28909271 0.79237366 1.95317078 C-0.32085902 14.05578285 -0.2301187 26.18827517 -0.31640625 38.33203125 C-0.3370104 40.77968163 -0.3580077 43.22732873 -0.37937927 45.67497253 C-0.43424284 52.07810793 -0.48380776 58.48127351 -0.53222656 64.88446045 C-0.58270445 71.43406826 -0.63825249 77.98363292 -0.69335938 84.53320312 C-0.80050327 97.35543155 -0.90221563 110.17769696 -1 123 C-1.99 123.495 -1.99 123.495 -3 124 C-3.73075648 126.3140622 -4.40138258 128.64828869 -5 131 C-5.33 131 -5.66 131 -6 131 C-6.91234158 124.80569125 -7.13735814 118.80071711 -7.11352539 112.54492188 C-7.11367142 111.52938232 -7.11381744 110.51384277 -7.1139679 109.4675293 C-7.11327518 106.1345806 -7.10551296 102.80168885 -7.09765625 99.46875 C-7.09578979 97.1484785 -7.09436696 94.82820661 -7.09336853 92.50793457 C-7.08956131 86.41868999 -7.07974642 80.32946948 -7.06866455 74.24023438 C-7.05841177 68.01953456 -7.05386264 61.79883084 -7.04882812 55.578125 C-7.03812248 43.38540612 -7.0210677 31.19270507 -7 19 C-6.34 18.67 -5.68 18.34 -5 18 C-5 47.04 -5 76.08 -5 106 C-4.34 106 -3.68 106 -3 106 C-2.99191315 104.84900818 -2.98382629 103.69801636 -2.97549438 102.512146 C-2.89776037 91.62584153 -2.8099539 80.73965787 -2.71247292 69.85351181 C-2.66268458 64.25783481 -2.61635391 58.66217511 -2.578125 53.06640625 C-2.5410505 47.65872214 -2.49463242 42.25118921 -2.44193649 36.84363556 C-2.42350965 34.7881767 -2.40835928 32.73268557 -2.39665604 30.67717743 C-2.27484716 10.00906486 -2.27484716 10.00906486 0 0 Z " fill="#84CCB8" transform="translate(8,30)"/>
<path d="M0 0 C0.66 0 1.32 0 2 0 C2.02712066 1.43739513 2.04645067 2.87493863 2.0625 4.3125 C2.07410156 5.11300781 2.08570313 5.91351563 2.09765625 6.73828125 C2 9 2 9 1 12 C-0.62390477 13.38509525 -2.30140333 14.70758949 -4 16 C-5.73059221 17.46586692 -7.44344856 18.95091762 -9.15625 20.4375 C-9.7646875 20.953125 -10.373125 21.46875 -11 22 C-11.75589417 22.66678772 -12.51178833 23.33357544 -13.29058838 24.02056885 C-23.45299054 31.44497615 -42.97931125 28.28817799 -54.890625 28.265625 C-57.4063928 28.26697433 -59.92216034 28.2689171 -62.43792725 28.27142334 C-68.35897449 28.27473417 -74.27994991 28.26779411 -80.20098662 28.2571218 C-85.58060625 28.24852897 -90.96013121 28.25462165 -96.33974481 28.264395 C-102.19436432 28.27460032 -108.04893311 28.27347563 -113.90355682 28.26763153 C-116.38018564 28.26630176 -118.85681792 28.26791906 -121.33344269 28.27259064 C-124.79562903 28.27769116 -128.25755921 28.26989701 -131.71972656 28.25878906 C-133.23953125 28.26486176 -133.23953125 28.26486176 -134.79003906 28.27105713 C-140.82439074 28.23533958 -146.15419333 27.51548897 -152 26 C-152 25.67 -152 25.34 -152 25 C-151.33410858 25.06983093 -150.66821716 25.13966187 -149.98214722 25.21160889 C-138.5038362 26.26158977 -127.02484901 26.18332965 -115.5078125 26.203125 C-114.39107021 26.20595238 -113.27432793 26.20877975 -112.12374496 26.21169281 C-106.2190503 26.22660248 -100.31437957 26.23588506 -94.40966797 26.24023438 C-88.35240073 26.2457214 -82.29535797 26.26977835 -76.23816109 26.29820633 C-71.54006324 26.31693374 -66.84201856 26.32204356 -62.14388657 26.32357025 C-59.91223798 26.32657213 -57.68058976 26.33451588 -55.44897842 26.34775543 C-30.8233533 26.96661495 -30.8233533 26.96661495 -9.30078125 16.5078125 C-4.80614828 11.77542816 -2.44279092 5.97727159 0 0 Z " fill="#56A48F" transform="translate(185,159)"/>
<path d="M0 0 C23.9345798 -1.16710254 23.9345798 -1.16710254 31.5234375 4.296875 C33 6 33 6 34 10 C27.73 10 21.46 10 15 10 C15 9.34 15 8.68 15 8 C13.9275 8.04125 12.855 8.0825 11.75 8.125 C6.57369255 7.95245642 6.57369255 7.95245642 4 6 C2.64185894 4.01676259 1.30637424 2.0177126 0 0 Z " fill="#5A9270" transform="translate(63,60)"/>
<path d="M0 0 C0.89248444 -0.00960754 1.78496887 -0.01921509 2.70449829 -0.02911377 C3.68034882 -0.03336365 4.65619934 -0.03761353 5.66162109 -0.04199219 C6.66784515 -0.04769226 7.67406921 -0.05339233 8.71078491 -0.05926514 C10.85454247 -0.06874191 12.99831478 -0.07525967 15.14208984 -0.07910156 C18.37283317 -0.08868265 21.60290574 -0.11962666 24.83349609 -0.15136719 C47.1562783 -0.26634618 47.1562783 -0.26634618 57.81005859 3.16113281 C58.80005859 4.15113281 58.80005859 4.15113281 59.81005859 5.16113281 C59.04994476 5.00036758 58.28983093 4.83960236 57.50668335 4.67396545 C52.54874613 3.98615097 47.66409367 3.98336431 42.6640625 3.95581055 C40.9948877 3.94096115 40.9948877 3.94096115 39.29199219 3.92581177 C35.6235566 3.89429111 31.95510808 3.86947661 28.28662109 3.84472656 C25.73928496 3.8241489 23.19195217 3.80315221 20.6446228 3.78175354 C14.6312129 3.73224868 8.61778561 3.68696171 2.60432851 3.64373118 C-4.24456223 3.59425839 -11.09340635 3.53937767 -17.94225192 3.48405159 C-32.02477151 3.3704114 -46.10733592 3.26353362 -60.18994141 3.16113281 C-60.18994141 2.83113281 -60.18994141 2.50113281 -60.18994141 2.16113281 C-59.50311783 2.15082535 -58.81629425 2.14051788 -58.10865784 2.12989807 C-50.98778283 2.02207686 -43.86704067 1.90745999 -36.74633789 1.78881836 C-34.08555875 1.74539101 -31.42475033 1.70372192 -28.76391602 1.66381836 C-24.94880325 1.6063041 -21.13383899 1.54255613 -17.31884766 1.47753906 C-15.52200279 1.45247032 -15.52200279 1.45247032 -13.68885803 1.42689514 C-12.03725929 1.39697731 -12.03725929 1.39697731 -10.35229492 1.36645508 C-9.37744644 1.3509108 -8.40259796 1.33536652 -7.39820862 1.3193512 C-4.57766775 1.1172645 -3.09994459 0.02687848 0 0 Z " fill="#83CCB6" transform="translate(109.18994140625,1.8388671875)"/>
<path d="M0 0 C5.23209924 5.91454696 4.13937258 13.61292493 4.11352539 21.05419922 C4.11367142 22.15722885 4.11381744 23.26025848 4.1139679 24.39671326 C4.11327274 28.03272486 4.10549891 31.66868487 4.09765625 35.3046875 C4.09579066 37.82959973 4.09436742 40.35451233 4.09336853 42.87942505 C4.08994404 48.83974084 4.08206719 54.80004015 4.07201904 60.76034749 C4.06082437 67.54874667 4.05533901 74.33714676 4.05032361 81.12555289 C4.03988364 95.08371212 4.02230514 109.04185505 4 123 C3.34 122.67 2.68 122.34 2 122 C2.00444122 120.75179977 2.00888245 119.50359955 2.01345825 118.21757507 C2.0542388 106.37700815 2.08409592 94.53645573 2.10362434 82.69583416 C2.11400201 76.61042511 2.12804949 70.52507336 2.15087891 64.43969727 C2.17282413 58.552264 2.18461369 52.66488538 2.18975449 46.77741432 C2.19341174 44.54628452 2.20055165 42.31515726 2.21146011 40.08405113 C2.274788 26.5779315 1.74908954 13.39904726 0 0 Z " fill="#ABD2C5" transform="translate(188,22)"/>
<path d="M0 0 C-0.33 0.99 -0.66 1.98 -1 3 C-3.87310943 3.75938584 -6.64592747 4.35304469 -9.5625 4.875 C-17.22328942 6.41256073 -23.68736064 7.74089225 -28.75 14.25 C-30.20849594 17.45869107 -31.65673492 20.67006691 -33.03515625 23.9140625 C-34 26 -34 26 -36 29 C-36.66 29 -37.32 29 -38 29 C-38.33 31.31 -38.66 33.62 -39 36 C-39.33 36 -39.66 36 -40 36 C-40.92776807 26.68108515 -38.55281462 18.53970757 -32.75 11.125 C-22.13571683 2.92305392 -13.59081558 -0.69762742 0 0 Z " fill="#B6E7D8" transform="translate(45,1)"/>
<path d="M0 0 C1.64594243 0.14459681 3.29174731 0.29075936 4.9375 0.4375 C6.31228516 0.55931641 6.31228516 0.55931641 7.71484375 0.68359375 C9.46474353 0.85213344 11.21446923 1.02695902 12.95874023 1.24621582 C18.46765359 1.92883256 23.86311098 2.13314964 29.41015625 2.09765625 C30.68952309 2.09553383 30.68952309 2.09553383 31.99473572 2.09336853 C34.68402816 2.08782939 37.37323328 2.0752888 40.0625 2.0625 C41.90038941 2.05747712 43.73828015 2.0529156 45.57617188 2.04882812 C50.05081422 2.03788 54.52539238 2.02065839 59 2 C58.67 2.66 58.34 3.32 58 4 C57.35536804 4.00364563 56.71073608 4.00729126 56.04656982 4.01104736 C49.23073481 4.05342639 42.41553907 4.12314202 35.60009766 4.20751953 C33.06923878 4.23544404 30.53829732 4.25679755 28.00732422 4.27099609 C-0.61246402 4.11414847 -0.61246402 4.11414847 -27 14 C-27.99 14.495 -27.99 14.495 -29 15 C-27.50098939 10.50296817 -24.46324647 9.57915877 -20.40234375 7.41796875 C-15.40243142 5.33419357 -10.42922655 4.53512315 -5.08984375 3.73828125 C-1.70922463 3.3008931 -1.70922463 3.3008931 0 0 Z " fill="#91D6C3" transform="translate(46,0)"/>
<path d="M0 0 C0.66 0 1.32 0 2 0 C2 0.66 2 1.32 2 2 C2.66 2 3.32 2 4 2 C4.5 5.125 4.5 5.125 4 9 C2.15706366 10.86441578 0.2398607 12.21604661 -1.95703125 13.640625 C-4.03609492 14.90789151 -4.03609492 14.90789151 -5.53125 16.66015625 C-7 18 -7 18 -10.6875 18.1875 C-12.3271875 18.0946875 -12.3271875 18.0946875 -14 18 C-18 11.25 -18 11.25 -18 9 C-17.11957031 9.020625 -16.23914063 9.04125 -15.33203125 9.0625 C-8.64753679 9.22354832 -8.64753679 9.22354832 -3.09375 6.15234375 C-1.7818782 3.97721195 -1.7818782 3.97721195 -0.83203125 1.71484375 C-0.55746094 1.14894531 -0.28289062 0.58304688 0 0 Z " fill="#457D63" transform="translate(129,52)"/>
<path d="M0 0 C0.33 0.66 0.66 1.32 1 2 C0.34 1.67 -0.32 1.34 -1 1 C-0.67 0.67 -0.34 0.34 0 0 Z M-9 8 C-7.02 8.99 -7.02 8.99 -5 10 C-6.74122549 11.03572896 -8.49336595 12.0531252 -10.25 13.0625 C-11.22453125 13.63097656 -12.1990625 14.19945312 -13.203125 14.78515625 C-16 16 -16 16 -18.359375 15.68359375 C-18.90078125 15.45800781 -19.4421875 15.23242188 -20 15 C-19.01 15 -18.02 15 -17 15 C-17 14.34 -17 13.68 -17 13 C-17.86786133 13.14210907 -18.73572266 13.28421814 -19.62988281 13.43063354 C-32.3451131 15.28361853 -44.92134306 15.25574987 -57.75 15.1953125 C-60.10367715 15.19157413 -62.45735588 15.18873106 -64.81103516 15.18673706 C-70.95280386 15.17916541 -77.09447531 15.15957376 -83.23620605 15.1373291 C-89.52464483 15.11672999 -95.81309959 15.1077055 -102.1015625 15.09765625 C-114.40108398 15.07632072 -126.70053385 15.04226456 -139 15 C-139 14.67 -139 14.34 -139 14 C-137.12556213 13.99120064 -137.12556213 13.99120064 -135.21325684 13.98222351 C-123.32996748 13.92455008 -111.44685335 13.85156418 -99.56374359 13.76428509 C-93.45722316 13.71990713 -87.35076449 13.68058309 -81.24414062 13.65356445 C-75.33062315 13.62720165 -69.41734769 13.58657766 -63.50398254 13.53681374 C-61.26865187 13.52036454 -59.03327957 13.50871588 -56.79789734 13.50238609 C-44.96003116 13.46553623 -33.31667255 13.02388072 -21.55664062 11.59301758 C-20.52539818 11.4688959 -19.49415573 11.34477423 -18.43166351 11.21689129 C-13.185692 10.77504227 -13.185692 10.77504227 -9 8 Z " fill="#4A927F" transform="translate(180,174)"/>
<path d="M0 0 C0.33 0 0.66 0 1 0 C1 30.03 1 60.06 1 91 C0.01 91.495 0.01 91.495 -1 92 C-0.99672699 91.32264801 -0.99345398 90.64529602 -0.99008179 89.94741821 C-0.93213303 75.88406112 -0.99854896 61.83341927 -1.2890625 47.7734375 C-1.31629586 46.41261945 -1.34345641 45.05179995 -1.37054443 43.690979 C-1.48170593 38.16118166 -1.5950306 32.6314735 -1.72363281 27.10205078 C-1.78821078 24.31271635 -1.84748949 21.52336907 -1.90072632 18.73379517 C-1.95034111 16.14278483 -2.00782504 13.55191022 -2.0741272 10.96127319 C-2.09429901 9.810513 -2.11447083 8.65975281 -2.13525391 7.47412109 C-2.15746002 6.46159271 -2.17966614 5.44906433 -2.20254517 4.40585327 C-2 2 -2 2 0 0 Z " fill="#5BA693" transform="translate(188,35)"/>
<path d="M0 0 C0.66 0.33 1.32 0.66 2 1 C2.43792819 14.07296737 2.33836767 24.86059853 -7 35 C-11.81425719 39.87406163 -16.63925683 43.41257905 -23 46 C-23.99 45.67 -24.98 45.34 -26 45 C-21.05 42.525 -21.05 42.525 -16 40 C-16 39.01 -16 38.02 -16 37 C-14.57421875 35.53515625 -14.57421875 35.53515625 -12.6875 34.0625 C-10.00590918 31.89452033 -8.03903667 29.7902607 -6 27 C-5.34 27 -4.68 27 -4 27 C-3.91435791 26.35973877 -3.82871582 25.71947754 -3.74047852 25.05981445 C-3.34947885 22.14381763 -2.95601325 19.22815863 -2.5625 16.3125 C-2.42779297 15.30509766 -2.29308594 14.29769531 -2.15429688 13.25976562 C-2.02216797 12.28330078 -1.89003906 11.30683594 -1.75390625 10.30078125 C-1.63345947 9.40528564 -1.5130127 8.50979004 -1.38891602 7.5871582 C-1.00562829 5.03744067 -0.5269857 2.52356549 0 0 Z " fill="#9ABCB3" transform="translate(190,144)"/>
<path d="M0 0 C11.55 0 23.1 0 35 0 C33 6 33 6 30 8 C29.67 7.34 29.34 6.68 29 6 C23.88031236 5.16070694 19.05514642 4.99468185 13.875 5.125 C8.74305791 5.17743364 5.44262188 4.5668482 1 2 C0.67 1.34 0.34 0.68 0 0 Z " fill="#6B7F4C" transform="translate(64,82)"/>
<path d="M0 0 C0.63808594 0.16628906 1.27617188 0.33257812 1.93359375 0.50390625 C6.77495979 1.2871591 11.60309918 1.00268894 16.49414062 0.87304688 C23.77356472 0.77034961 23.77356472 0.77034961 27 3 C27 3.99 27 4.98 27 6 C21.1779712 9.0097598 16.55546548 9.38006704 10.0625 9.1875 C9.18787109 9.17396484 8.31324219 9.16042969 7.41210938 9.14648438 C5.27446914 9.11144109 3.13715016 9.05764541 1 9 C1 8.67 1 8.34 1 8 C4.3 7.67 7.6 7.34 11 7 C9.55625 6.5875 8.1125 6.175 6.625 5.75 C2.31730769 4.51923077 2.31730769 4.51923077 0.7109375 1.890625 C0.47632812 1.26671875 0.24171875 0.6428125 0 0 Z " fill="#7A9D6D" transform="translate(67,85)"/>
<path d="M0 0 C0.33 0 0.66 0 1 0 C1.02333782 8.99818522 1.04102301 17.99635976 1.05181217 26.99456882 C1.05699465 31.17436873 1.06400632 35.35414769 1.07543945 39.53393555 C1.0864353 43.57993203 1.09231157 47.62590857 1.09487724 51.67191887 C1.09670181 53.20299531 1.10026333 54.73407086 1.10573006 56.26513863 C1.13982454 66.22494826 0.79675137 76.06920647 0 86 C-0.66 86 -1.32 86 -2 86 C-2 74.78 -2 63.56 -2 52 C-1.67 52 -1.34 52 -1 52 C-0.67 34.84 -0.34 17.68 0 0 Z " fill="#97D5C2" transform="translate(5,50)"/>
<path d="M0 0 C4.99707191 3.90303841 10.11194059 8.24717199 13 14 C12.84375 16.1796875 12.84375 16.1796875 12 18 C9 19 9 19 5 19 C5 19.66 5 20.32 5 21 C4.34 21 3.68 21 3 21 C3 20.34 3 19.68 3 19 C2.36191406 18.81824219 1.72382812 18.63648438 1.06640625 18.44921875 C0.24011719 18.19785156 -0.58617188 17.94648438 -1.4375 17.6875 C-2.26121094 17.44386719 -3.08492188 17.20023438 -3.93359375 16.94921875 C-4.61550781 16.63597656 -5.29742187 16.32273438 -6 16 C-6.33 15.01 -6.66 14.02 -7 13 C-1.72 13 3.56 13 9 13 C5.49029034 7.31051721 5.49029034 7.31051721 2.25 4.25 C1.5075 3.5075 0.765 2.765 0 2 C0 1.34 0 0.68 0 0 Z " fill="#417660" transform="translate(110,130)"/>
<path d="M0 0 C0.99 0.33 1.98 0.66 3 1 C2.236875 1.886875 1.47375 2.77375 0.6875 3.6875 C-0.88958811 5.5729573 -2.18311829 7.31050492 -3.4375 9.4375 C-6.63101251 14.67486052 -9.89487995 19.27804306 -16 21 C-19.85964332 22.42118978 -19.85964332 22.42118978 -23 25 C-22.73323796 26.98491642 -22.73323796 26.98491642 -22 29 C-21.67 29.99 -21.34 30.98 -21 32 C-20.01 32.33 -19.02 32.66 -18 33 C-16.39453125 34.62890625 -16.39453125 34.62890625 -14.8125 36.5625 C-14.01779297 37.52349609 -14.01779297 37.52349609 -13.20703125 38.50390625 C-12.80871094 38.99761719 -12.41039063 39.49132812 -12 40 C-12.33 40.66 -12.66 41.32 -13 42 C-22.59453303 32.77448747 -22.59453303 32.77448747 -26 27 C-24.90977533 23.6514528 -23.84904024 21.51211951 -20.78515625 19.6640625 C-19.02580429 18.8333309 -17.26263701 18.01064016 -15.49609375 17.1953125 C-8.84901421 14.01220399 -5.70653648 9.33233245 -2.19921875 3.109375 C-1 1 -1 1 0 0 Z " fill="#47846E" transform="translate(122,88)"/>
<path d="M0 0 C24.03877221 -1.17218319 24.03877221 -1.17218319 31.62109375 4.6875 C32.07613281 5.120625 32.53117187 5.55375 33 6 C32.34 6.33 31.68 6.66 31 7 C30.15308594 6.69964844 29.30617188 6.39929688 28.43359375 6.08984375 C23.54815411 4.5391752 18.81391551 4.61068993 13.72070312 4.52148438 C8.45294097 4.33891612 4.72536587 3.35953689 0 1 C0 0.67 0 0.34 0 0 Z " fill="#5F7445" transform="translate(63,60)"/>
<path d="M0 0 C-0.33 0.99 -0.66 1.98 -1 3 C-3.52047792 3.48109963 -6.0413537 3.95992603 -8.5625 4.4375 C-9.26697266 4.57220703 -9.97144531 4.70691406 -10.69726562 4.84570312 C-14.09952431 5.48852619 -17.4484449 6.05357926 -20.890625 6.46484375 C-24.59036341 7.10160777 -25.46585274 8.37846836 -28 11 C-30.11328125 10.6171875 -30.11328125 10.6171875 -32 10 C-21.34023368 2.60301387 -13.02394004 -0.66852924 0 0 Z " fill="#A5E6D8" transform="translate(45,1)"/>
<path d="M0 0 C0.7734375 1.68359375 0.7734375 1.68359375 1 4 C-0.8359375 6.47265625 -0.8359375 6.47265625 -3.375 9.0625 C-6.91031502 12.58351471 -6.91031502 12.58351471 -9 17 C-11.3125 16.875 -11.3125 16.875 -14 16 C-17 11.13793103 -17 11.13793103 -17 8 C-16.10796875 8.00902344 -15.2159375 8.01804687 -14.296875 8.02734375 C-7.77125413 8.17984864 -7.77125413 8.17984864 -2.24609375 5.375 C-1.01702379 3.25338199 -1.01702379 3.25338199 0 0 Z " fill="#416A4D" transform="translate(128,53)"/>
<path d="M0 0 C0.66 0.99 1.32 1.98 2 3 C2.66 2.01 3.32 1.02 4 0 C3.86722656 1.10730469 3.73445312 2.21460938 3.59765625 3.35546875 C1.88177936 18.54211449 1.39115995 33.72886105 1 49 C0.67 49 0.34 49 0 49 C-0.1680882 42.98617776 -0.3285968 36.97221806 -0.48217773 30.95800781 C-0.53544747 28.91335651 -0.59076434 26.86875745 -0.64819336 24.82421875 C-0.73052508 21.88032289 -0.8054198 18.93631583 -0.87890625 15.9921875 C-0.90594131 15.0825827 -0.93297638 14.17297791 -0.96083069 13.23580933 C-1.06718921 8.68198021 -0.95815373 4.48428849 0 0 Z " fill="#A8E0D0" transform="translate(4,30)"/>
<path d="M0 0 C0.66 0.33 1.32 0.66 2 1 C1.35482627 6.29769415 -0.74861071 8.0715874 -4.734375 11.34765625 C-8.04965488 13.76552416 -11.19123701 15.45067268 -15 17 C-15.99 16.67 -16.98 16.34 -18 16 C-14.7 14.35 -11.4 12.7 -8 11 C-8 10.01 -8 9.02 -8 8 C-6.50390625 6.46484375 -6.50390625 6.46484375 -4.5625 4.9375 C-1.84124807 2.8328667 -1.84124807 2.8328667 0 0 Z " fill="#86AEA4" transform="translate(182,173)"/>
<path d="M0 0 C4.78623424 5.41052567 4.14170204 12.06932026 4.09765625 18.8984375 C4.0962413 19.73339752 4.09482635 20.56835754 4.09336853 21.42861938 C4.08780174 24.07745042 4.07525547 26.7261948 4.0625 29.375 C4.0574807 31.17838419 4.05291855 32.98176971 4.04882812 34.78515625 C4.0378432 39.19013721 4.02060163 43.59505394 4 48 C3.67 48 3.34 48 3 48 C2.98018066 47.22100342 2.96036133 46.44200684 2.93994141 45.6394043 C2.53212354 30.34172809 1.94787183 15.1858357 0 0 Z " fill="#BAD4CD" transform="translate(188,22)"/>
<path d="M0 0 C0.94939453 0.24556641 0.94939453 0.24556641 1.91796875 0.49609375 C6.06751093 1.17453601 10.11641498 1.10555375 14.3125 1.0625 C15.56643555 1.05573242 15.56643555 1.05573242 16.84570312 1.04882812 C18.89716649 1.03710548 20.94859273 1.01917203 23 1 C21 4 21 4 19.21875 4.6796875 C16.62001764 5.05485661 14.12602509 5.13221435 11.5 5.125 C10.09234375 5.12886719 10.09234375 5.12886719 8.65625 5.1328125 C6.24928889 5.01246444 4.26530956 4.81122572 2 4 C0.75 1.9375 0.75 1.9375 0 0 Z " fill="#5A9272" transform="translate(67,85)"/>
<path d="M0 0 C3.39581516 -0.0291544 6.79159786 -0.04685068 10.1875 -0.0625 C11.14720703 -0.07087891 12.10691406 -0.07925781 13.09570312 -0.08789062 C14.02705078 -0.09111328 14.95839844 -0.09433594 15.91796875 -0.09765625 C17.19837036 -0.10551147 17.19837036 -0.10551147 18.50463867 -0.11352539 C21.09246747 0.00420677 23.47661953 0.42892956 26 1 C26 1.66 26 2.32 26 3 C19.73 3 13.46 3 7 3 C7 2.34 7 1.68 7 1 C4.69 1 2.38 1 0 1 C0 0.67 0 0.34 0 0 Z " fill="#65A17F" transform="translate(71,67)"/>
<path d="M0 0 C-3.75 1.125 -3.75 1.125 -6 0 C-8.55106029 -0.15644172 -11.07918663 -0.25821389 -13.6328125 -0.31640625 C-14.38464813 -0.33718735 -15.13648376 -0.35796844 -15.91110229 -0.37937927 C-18.31564085 -0.44482705 -20.72028967 -0.50373738 -23.125 -0.5625 C-24.75391771 -0.60568977 -26.38282422 -0.64930421 -28.01171875 -0.69335938 C-32.00769915 -0.80050351 -36.00379059 -0.90178433 -40 -1 C-40 -1.33 -40 -1.66 -40 -2 C-10.49216176 -3.97896879 -10.49216176 -3.97896879 0 0 Z " fill="#79C6B0" transform="translate(169,6)"/>
<path d="M0 0 C4.99707191 3.90303841 10.11194059 8.24717199 13 14 C12.84375 16.1796875 12.84375 16.1796875 12 18 C9 19 9 19 5 19 C5 19.66 5 20.32 5 21 C4.34 21 3.68 21 3 21 C3 20.34 3 19.68 3 19 C2.34 18.67 1.68 18.34 1 18 C4.465 17.505 4.465 17.505 8 17 C8.88556744 15.31026274 8.88556744 15.31026274 9 13 C7.10287361 9.57057921 5.02190727 7.02190727 2.25 4.25 C1.5075 3.5075 0.765 2.765 0 2 C0 1.34 0 0.68 0 0 Z " fill="#588D71" transform="translate(110,130)"/>
<path d="M0 0 C-2.42745916 2.0113233 -4.76319519 3.86383724 -7.5 5.4375 C-10.43930264 7.27456415 -12.62516796 9.48946327 -15 12 C-15.99 11.67 -16.98 11.34 -18 11 C-17.34 9.35 -16.68 7.7 -16 6 C-14.35 6 -12.7 6 -11 6 C-10.67 5.01 -10.34 4.02 -10 3 C-6.58517997 0.43888497 -4.25191465 -0.36444983 0 0 Z " fill="#C1EBE1" transform="translate(28,6)"/>
<path d="M0 0 C10.56 0 21.12 0 32 0 C31.34 1.32 30.68 2.64 30 4 C29.67 3.34 29.34 2.68 29 2 C28.29915283 2.00523682 27.59830566 2.01047363 26.8762207 2.01586914 C23.68832299 2.03670852 20.50043964 2.04968232 17.3125 2.0625 C16.20970703 2.07087891 15.10691406 2.07925781 13.97070312 2.08789062 C12.3706543 2.09272461 12.3706543 2.09272461 10.73828125 2.09765625 C9.75899658 2.10289307 8.77971191 2.10812988 7.77075195 2.11352539 C5.07530428 2.00308543 2.62454361 1.60534166 0 1 C0 0.67 0 0.34 0 0 Z " fill="#446B43" transform="translate(67,83)"/>
<path d="M0 0 C0.33 0.66 0.66 1.32 1 2 C3.58774327 3.51695295 6.07471973 4.37315423 9 5 C9 5.66 9 6.32 9 7 C9.66 7.33 10.32 7.66 11 8 C11.99 8.66 12.98 9.32 14 10 C14 10.66 14 11.32 14 12 C8.62287887 10.65571972 3.81947527 8.05213367 0 4 C0 2.68 0 1.36 0 0 Z " fill="#6FA595" transform="translate(13,177)"/>
<path d="M0 0 C0.66 0 1.32 0 2 0 C2.02712066 1.43739513 2.04645067 2.87493863 2.0625 4.3125 C2.07410156 5.11300781 2.08570313 5.91351563 2.09765625 6.73828125 C2 9 2 9 1 12 C-0.32 12 -1.64 12 -3 12 C-3.99 12.495 -3.99 12.495 -5 13 C-3.58192622 8.52761347 -1.88695626 4.28853694 0 0 Z " fill="#59A18D" transform="translate(185,159)"/>
<path d="M0 0 C2 1.375 2 1.375 4 3 C4 3.66 4 4.32 4 5 C4.66 5.12375 5.32 5.2475 6 5.375 C9.69698583 6.14520538 13.34005942 7.06950663 17 8 C17 8.33 17 8.66 17 9 C12.38 9 7.76 9 3 9 C2.01 6.03 1.02 3.06 0 0 Z " fill="#69AA8D" transform="translate(65,84)"/>
<path d="M0 0 C0.96679688 0.00902344 1.93359375 0.01804687 2.9296875 0.02734375 C3.65414062 0.03894531 4.37859375 0.05054688 5.125 0.0625 C5.125 0.3925 5.125 0.7225 5.125 1.0625 C4.01382813 1.22105469 2.90265625 1.37960938 1.7578125 1.54296875 C-6.91081782 2.87030709 -14.27308082 4.43813778 -21.875 9.0625 C-22.865 9.5575 -22.865 9.5575 -23.875 10.0625 C-22.58370996 6.18862988 -21.22542864 5.83776396 -17.6875 3.9375 C-16.74519531 3.41929688 -15.80289062 2.90109375 -14.83203125 2.3671875 C-9.92847463 0.20366318 -5.3059852 -0.06470714 0 0 Z " fill="#92D4BD" transform="translate(40.875,4.9375)"/>
<path d="M0 0 C0.66 0.33 1.32 0.66 2 1 C2 5.29 2 9.58 2 14 C1.34 14 0.68 14 0 14 C-0.33 15.65 -0.66 17.3 -1 19 C-1.33 19 -1.66 19 -2 19 C-1.85820962 16.77057252 -1.71140302 14.54146372 -1.5625 12.3125 C-1.48128906 11.07113281 -1.40007812 9.82976562 -1.31640625 8.55078125 C-1.05508683 5.61819663 -0.65201621 2.86558383 0 0 Z " fill="#87B6A8" transform="translate(190,144)"/>
<path d="M0 0 C0.33 0 0.66 0 1 0 C2.14806378 11.52164009 2.14806378 11.52164009 2 17 C2.66 17 3.32 17 4 17 C4.33 18.32 4.66 19.64 5 21 C4.34 21.33 3.68 21.66 3 22 C-0.47723835 14.28487742 -2.04391112 8.43113339 0 0 Z " fill="#7AC0AC" transform="translate(4,152)"/>
<path d="M0 0 C0.99386719 0.00902344 1.98773438 0.01804688 3.01171875 0.02734375 C4.15060547 0.04474609 4.15060547 0.04474609 5.3125 0.0625 C4.9825 1.0525 4.6525 2.0425 4.3125 3.0625 C0.6825 3.7225 -2.9475 4.3825 -6.6875 5.0625 C-6.3575 4.0725 -6.0275 3.0825 -5.6875 2.0625 C-6.6775 1.7325 -7.6675 1.4025 -8.6875 1.0625 C-5.53819107 0.01273036 -3.29935544 -0.03881595 0 0 Z " fill="#A2E0D0" transform="translate(39.6875,0.9375)"/>
<path d="M0 0 C3.3 0 6.6 0 10 0 C8.60307672 2.79384655 6.56793257 3.08242843 3.7890625 4.203125 C1.59949046 5.1783929 -0.16930968 6.46222013 -2 8 C-1.34 5.36 -0.68 2.72 0 0 Z " fill="#4B6847" transform="translate(115,82)"/>
<path d="M0 0 C3.63 0 7.26 0 11 0 C9 1.33333333 7 2.66666667 5 4 C5.33 5.65 5.66 7.3 6 9 C3 8 3 8 1.3125 5.0625 C0 2 0 2 0 0 Z " fill="#3D512F" transform="translate(111,61)"/>
<path d="M0 0 C0.33 0.66 0.66 1.32 1 2 C0.34 1.67 -0.32 1.34 -1 1 C-0.67 0.67 -0.34 0.34 0 0 Z M-9 8 C-7.68 8.66 -6.36 9.32 -5 10 C-8.83325617 12.70582788 -11.32538149 13.32613618 -16 13 C-14.60683123 10.21366246 -12.84019484 10.06507306 -10 9 C-9.67 8.67 -9.34 8.34 -9 8 Z " fill="#4C8D7C" transform="translate(180,174)"/>
<path d="M0 0 C1.45792884 -0.05399736 2.91642712 -0.09279177 4.375 -0.125 C5.18710937 -0.14820313 5.99921875 -0.17140625 6.8359375 -0.1953125 C9 0 9 0 11 2 C9.68 2.33 8.36 2.66 7 3 C9.97 3.33 12.94 3.66 16 4 C16 4.33 16 4.66 16 5 C12.37 5 8.74 5 5 5 C4.67 4.01 4.34 3.02 4 2 C1.99983534 0.79117904 1.99983534 0.79117904 0 0 Z " fill="#559383" transform="translate(23,185)"/>
<path d="M0 0 C1.65 0 3.3 0 5 0 C5 0.66 5 1.32 5 2 C5.74765625 2.04898438 6.4953125 2.09796875 7.265625 2.1484375 C8.74289063 2.26058594 8.74289063 2.26058594 10.25 2.375 C11.22453125 2.44460937 12.1990625 2.51421875 13.203125 2.5859375 C15.89633189 2.98465249 17.66963279 3.63507063 20 5 C12.91923749 5.40850553 6.80074041 3.90420731 0 2 C0 1.34 0 0.68 0 0 Z " fill="#55A28D" transform="translate(22,182)"/>
<path d="M0 0 C0 3.90838866 -1.50567876 5.11594107 -4 8 C-3.34 8.33 -2.68 8.66 -2 9 C-2.33 9.66 -2.66 10.32 -3 11 C-4.65 10.01 -6.3 9.02 -8 8 C-6.49776416 3.79373966 -3.71449966 2.26099979 0 0 Z " fill="#589980" transform="translate(135,62)"/>
<path d="M0 0 C1.9375 0.8125 1.9375 0.8125 4 2 C4.33 2.99 4.66 3.98 5 5 C5.99 5.33 6.98 5.66 8 6 C9.60546875 7.62890625 9.60546875 7.62890625 11.1875 9.5625 C11.71730469 10.20316406 12.24710938 10.84382813 12.79296875 11.50390625 C13.39044922 12.24447266 13.39044922 12.24447266 14 13 C13.67 13.66 13.34 14.32 13 15 C3.40546697 5.77448747 3.40546697 5.77448747 0 0 Z " fill="#63875E" transform="translate(96,115)"/>
<path d="M0 0 C-1 1 -1 1 -4.5625 1.0625 C-5.696875 1.041875 -6.83125 1.02125 -8 1 C-7.67 2.65 -7.34 4.3 -7 6 C-6.34 6 -5.68 6 -5 6 C-5.33 6.99 -5.66 7.98 -6 9 C-11 3.25 -11 3.25 -11 1 C-3.57142857 -1.42857143 -3.57142857 -1.42857143 0 0 Z " fill="#555F35" transform="translate(99,104)"/>
<path d="M0 0 C0 3 0 3 -2.1875 6.1875 C-5 9 -5 9 -7.8125 9.375 C-8.534375 9.25125 -9.25625 9.1275 -10 9 C-8.60135422 5.50338555 -7.3985719 4.49936996 -4 3 C-2.64886795 2.02418241 -1.31053056 1.02970259 0 0 Z " fill="#4E8B72" transform="translate(132,61)"/>
<path d="M0 0 C2.97 0.33 5.94 0.66 9 1 C9.33 1.99 9.66 2.98 10 4 C9.01 4.66 8.02 5.32 7 6 C6.67 5.34 6.34 4.68 6 4 C4.02111039 3.27306096 2.02045442 2.60183749 0 2 C0 1.34 0 0.68 0 0 Z " fill="#688851" transform="translate(87,84)"/>
<path d="M0 0 C3.63 0.66 7.26 1.32 11 2 C11 2.66 11 3.32 11 4 C7.7 4.33 4.4 4.66 1 5 C0.67 3.35 0.34 1.7 0 0 Z " fill="#6FAC90" transform="translate(67,66)"/>
<path d="M0 0 C5.44208234 0.34013015 8.93668198 3.70296528 13 7 C12.01 7.33 11.02 7.66 10 8 C8.28125 7.0390625 8.28125 7.0390625 6.5 5.625 C4.2063377 3.82427389 2.83198518 2.94399506 0 2 C0 1.34 0 0.68 0 0 Z " fill="#9AC9BD" transform="translate(169,5)"/>
<path d="M0 0 C1.5 1 1.5 1 3 3 C3.27345479 5.71846235 3.13491285 8.25677199 3 11 C2.01 10.67 1.02 10.34 0 10 C-1.125 2.25 -1.125 2.25 0 0 Z " fill="#7CCAB4" transform="translate(3,143)"/>
<path d="M0 0 C0.66 0.33 1.32 0.66 2 1 C1.401875 1.66 0.80375 2.32 0.1875 3 C-2.42425831 6.58183997 -3.58094144 9.81377726 -5 14 C-5.33 14 -5.66 14 -6 14 C-6.48792229 10.74718472 -6.40014561 8.65286916 -4.6640625 5.8203125 C-3.15782398 3.8332091 -1.61782175 1.8970886 0 0 Z " fill="#9EDAC5" transform="translate(15,15)"/>
<path d="M0 0 C4.92127034 -0.16682272 8.50343896 -0.24828052 13 2 C12.67 2.66 12.34 3.32 12 4 C6.06 2.515 6.06 2.515 0 1 C0 0.67 0 0.34 0 0 Z " fill="#A2D8C9" transform="translate(157,2)"/>
<path d="M0 0 C4.29 0 8.58 0 13 0 C12.34 1.32 11.68 2.64 11 4 C10.67 3.34 10.34 2.68 10 2 C7.64400765 1.53248212 7.64400765 1.53248212 4.9375 1.375 C4.01839844 1.30023438 3.09929687 1.22546875 2.15234375 1.1484375 C1.08693359 1.07496094 1.08693359 1.07496094 0 1 C0 0.67 0 0.34 0 0 Z " fill="#556831" transform="translate(86,83)"/>
<path d="M0 0 C0.66 0.33 1.32 0.66 2 1 C1.6875 3.375 1.6875 3.375 1 6 C0.01 6.66 -0.98 7.32 -2 8 C-2.20086443 4.28400809 -2.1519437 3.22791555 0 0 Z " fill="#7BA79B" transform="translate(182,173)"/>
<path d="M0 0 C2.42102911 1.18098981 3.82068009 2.2331559 5.5625 4.25 C4.28375 3.96125 3.005 3.6725 1.6875 3.375 C0.96820313 3.21257812 0.24890625 3.05015625 -0.4921875 2.8828125 C-2.4375 2.25 -2.4375 2.25 -4.4375 0.25 C-2.4375 -0.75 -2.4375 -0.75 0 0 Z " fill="#69844F" transform="translate(90.4375,62.75)"/>
<path d="M0 0 C0.66 0 1.32 0 2 0 C2.05422947 1.4370809 2.09289723 2.87475462 2.125 4.3125 C2.14820313 5.11300781 2.17140625 5.91351563 2.1953125 6.73828125 C2 9 2 9 0 12 C0.03255208 10.01432292 0.06510417 8.02864583 0.09765625 6.04296875 C0.08263217 3.79694539 0.08263217 3.79694539 -1 1 C-0.67 0.67 -0.34 0.34 0 0 Z " fill="#65A492" transform="translate(185,159)"/>
<path d="M0 0 C0.33 0 0.66 0 1 0 C0.74438677 2.3431213 0.40729228 4.67843403 0 7 C-0.99 7.495 -0.99 7.495 -2 8 C-2.33 6.35 -2.66 4.7 -3 3 C-2.01 2.67 -1.02 2.34 0 2 C0 1.34 0 0.68 0 0 Z " fill="#8DB5AA" transform="translate(186,169)"/>
<path d="M0 0 C1.65 0 3.3 0 5 0 C4.34 1.32 3.68 2.64 3 4 C1.35 4 -0.3 4 -2 4 C-1.34 2.68 -0.68 1.36 0 0 Z " fill="#68A07C" transform="translate(84,89)"/>
</svg>
