<?xml version="1.0" encoding="UTF-8"?>
<svg version="1.1" xmlns="http://www.w3.org/2000/svg" width="192" height="192">
<path d="M0 0 C63.36 0 126.72 0 192 0 C192 63.36 192 126.72 192 192 C128.64 192 65.28 192 0 192 C0 128.64 0 65.28 0 0 Z " fill="#FEFEFE" transform="translate(0,0)"/>
<path d="M0 0 C0.84409424 -0.00419449 1.68818848 -0.00838898 2.55786133 -0.01271057 C3.9419368 -0.00428131 3.9419368 -0.00428131 5.35397339 0.00431824 C6.32816223 0.00241989 7.30235107 0.00052155 8.30606079 -0.00143433 C11.53158572 -0.00514427 14.75688638 0.00556397 17.98239136 0.01676941 C20.21773248 0.01796103 22.4530741 0.01841441 24.68841553 0.01815796 C29.37416719 0.01972312 34.05984249 0.02801641 38.74557495 0.04142761 C44.7663179 0.05843709 50.78697701 0.06224142 56.80774117 0.06148243 C61.42294116 0.06175368 66.03812264 0.06722732 70.6533165 0.07448387 C72.87419367 0.07767638 75.09507295 0.0796393 77.3159523 0.08037758 C80.41199608 0.08253389 83.50794898 0.0912621 86.60397339 0.10197449 C87.53073883 0.1015213 88.45750427 0.10106812 89.41235352 0.1006012 C95.73510396 0.13276326 95.73510396 0.13276326 96.84957886 1.24723816 C96.60436429 7.25499518 94.58978004 11.5449621 90.84957886 16.24723816 C87.74872315 18.3144753 87.12026205 18.49221239 83.61911011 18.44255066 C82.8166687 18.43610535 82.01422729 18.42966003 81.18746948 18.42301941 C80.35409058 18.4062616 79.52071167 18.38950378 78.66207886 18.37223816 C77.81709839 18.36321472 76.97211792 18.35419128 76.10153198 18.34489441 C74.01742643 18.32134519 71.93346669 18.28547463 69.84957886 18.24723816 C70.83957886 22.70223816 70.83957886 22.70223816 71.84957886 27.24723816 C72.56613647 27.23676453 73.28269409 27.22629089 74.02096558 27.21549988 C77.25546791 27.17402517 80.48991439 27.14793924 83.72457886 27.12223816 C84.85250854 27.10548035 85.98043823 27.08872253 87.14254761 27.07145691 C88.21891479 27.0650116 89.29528198 27.05856628 90.40426636 27.05192566 C91.39926147 27.04145203 92.39425659 27.03097839 93.41940308 27.02018738 C95.84957886 27.24723816 95.84957886 27.24723816 97.84957886 29.24723816 C97.4736144 32.72114978 95.74797759 35.41657361 93.97457886 38.37223816 C93.20500854 39.67548035 93.20500854 39.67548035 92.41989136 41.00505066 C90.84957886 43.24723816 90.84957886 43.24723816 87.84957886 45.24723816 C85.4628081 45.541764 83.06331792 45.74005986 80.66207886 45.87223816 C79.38977417 45.94700378 78.11746948 46.02176941 76.80661011 46.09880066 C75.83078979 46.14778503 74.85496948 46.19676941 73.84957886 46.24723816 C73.63043823 47.0090741 73.41129761 47.77091003 73.18551636 48.55583191 C70.99900284 55.67533323 68.31676776 61.30734962 63.84957886 67.24723816 C63.27207886 68.13411316 62.69457886 69.02098816 62.09957886 69.93473816 C53.69014581 78.57776657 40.55654544 82.86382279 28.84957886 84.24723816 C31.39362538 89.1528197 34.97650544 92.64696752 38.86129761 96.48942566 C39.54835281 97.17602264 40.23540802 97.86261963 40.94328308 98.57002258 C42.39592852 100.0196534 43.85099718 101.46685949 45.30831909 102.91178894 C47.51725185 105.10257404 49.71818584 107.30114555 51.91793823 109.50114441 C53.3360894 110.91437524 54.75469497 112.32715025 56.17379761 113.73942566 C56.8230571 114.38757233 57.47231659 115.03571899 58.14125061 115.70350647 C61.98054505 119.50394457 65.92411842 123.13491481 70.01542664 126.66293335 C73.02953638 129.26646238 75.96212021 131.94198898 78.84957886 134.68473816 C79.43352417 135.20616394 80.01746948 135.72758972 80.61911011 136.26481628 C83.59630755 139.1269698 85.25618875 141.19501813 85.53707886 145.40739441 C84.84957886 149.24723816 84.84957886 149.24723816 82.89816284 151.45402527 C78.67102691 153.94047625 75.20632605 153.82315284 70.38473511 153.77848816 C69.01834145 153.78422852 69.01834145 153.78422852 67.62434387 153.79008484 C65.70209648 153.79280094 63.77981193 153.7854609 61.8576355 153.76872253 C58.9250691 153.74733291 55.99495935 153.76852124 53.06246948 153.79411316 C51.19071931 153.79146935 49.31897066 153.78634326 47.44723511 153.77848816 C46.57518936 153.78658508 45.70314362 153.79468201 44.80467224 153.80302429 C39.34535521 153.71951555 36.15254809 152.91968143 31.84957886 149.24723816 C30.41598511 147.57267761 30.41598511 147.57267761 29.41207886 145.86051941 C29.00312378 145.18577576 28.5941687 144.5110321 28.17282104 143.81584167 C27.51781616 142.69907043 27.51781616 142.69907043 26.84957886 141.55973816 C21.01467497 131.97202697 14.84352649 122.63339696 8.59957886 113.30973816 C7.65550159 111.89808039 6.71149001 110.48637869 5.76754761 109.07463074 C4.85220627 107.70636974 3.93684208 106.33812403 3.02145386 104.96989441 C2.35962097 103.98017387 2.35962097 103.98017387 1.68441772 102.97045898 C-0.3911882 99.86824854 -2.47185387 96.76977802 -4.56643677 93.68034363 C-5.29024536 92.60800476 -6.01405396 91.53566589 -6.75979614 90.43083191 C-7.39369263 89.49682556 -8.02758911 88.56281921 -8.68069458 87.60050964 C-11.04797756 83.81010422 -11.35978446 80.70118973 -11.46292114 76.30973816 C-11.50030396 75.26946472 -11.53768677 74.22919128 -11.57620239 73.15739441 C-11.15042114 70.24723816 -11.15042114 70.24723816 -9.70901489 67.90739441 C-5.89571342 65.43311483 -2.35887952 65.6497171 2.09957886 65.62223816 C13.14466143 65.44884597 23.9140319 63.7376191 32.34957886 55.93473816 C33.70093331 53.51356143 34.31493389 51.73640503 34.94332886 49.07926941 C35.24239136 47.8146991 35.54145386 46.55012878 35.84957886 45.24723816 C35.26742111 45.25389999 34.68526337 45.26056183 34.08546448 45.26742554 C28.0349682 45.33371506 21.98457481 45.37901208 15.93380737 45.41203308 C13.67465018 45.42713418 11.41552236 45.44761658 9.15646362 45.47355652 C5.91216793 45.50988123 2.6682593 45.52695124 -0.57620239 45.54020691 C-1.58878616 45.55569077 -2.60136993 45.57117462 -3.64463806 45.58712769 C-5.05576118 45.58746758 -5.05576118 45.58746758 -6.49539185 45.58781433 C-7.73782402 45.59780708 -7.73782402 45.59780708 -9.00535583 45.60800171 C-11.66063073 45.16142957 -12.56503764 44.39295661 -14.15042114 42.24723816 C-13.98072682 38.09312113 -12.27243387 35.66869259 -9.71292114 32.49723816 C-9.09546021 31.71864441 -8.47799927 30.94005066 -7.84182739 30.13786316 C-6.15042114 28.24723816 -6.15042114 28.24723816 -4.15042114 27.24723816 C-1.5967951 27.16065247 0.92912306 27.131613 3.48239136 27.14958191 C4.61014481 27.15170433 4.61014481 27.15170433 5.76068115 27.15386963 C8.16535395 27.15947351 10.56993413 27.17202659 12.97457886 27.18473816 C14.60348376 27.18975266 16.23239013 27.19431566 17.86129761 27.19841003 C21.85742712 27.20944419 25.85348728 27.22671137 29.84957886 27.24723816 C29.18888642 24.18330286 29.18888642 24.18330286 27.02926636 23.14958191 C26.26871948 22.83118347 25.50817261 22.51278503 24.72457886 22.18473816 C23.60696167 21.70327332 23.60696167 21.70327332 22.46676636 21.21208191 C13.75158764 17.99917274 5.822861 17.85806441 -3.42971802 17.68083191 C-4.51962036 17.65118347 -5.60952271 17.62153503 -6.73245239 17.59098816 C-7.72478882 17.57229675 -8.71712524 17.55360535 -9.73953247 17.53434753 C-12.15042114 17.24723816 -12.15042114 17.24723816 -14.15042114 15.24723816 C-14.15042114 10.01385084 -10.47198989 5.99019996 -7.15042114 2.24723816 C-4.07505524 0.19699423 -3.46473368 -0.0025737 0 0 Z " fill="#FAAD1B" transform="translate(51.150421142578125,22.752761840820313)"/>
<path d="M0 0 C0.84409424 -0.00419449 1.68818848 -0.00838898 2.55786133 -0.01271057 C3.9419368 -0.00428131 3.9419368 -0.00428131 5.35397339 0.00431824 C6.32816223 0.00241989 7.30235107 0.00052155 8.30606079 -0.00143433 C11.53158572 -0.00514427 14.75688638 0.00556397 17.98239136 0.01676941 C20.21773248 0.01796103 22.4530741 0.01841441 24.68841553 0.01815796 C29.37416719 0.01972312 34.05984249 0.02801641 38.74557495 0.04142761 C44.7663179 0.05843709 50.78697701 0.06224142 56.80774117 0.06148243 C61.42294116 0.06175368 66.03812264 0.06722732 70.6533165 0.07448387 C72.87419367 0.07767638 75.09507295 0.0796393 77.3159523 0.08037758 C80.41199608 0.08253389 83.50794898 0.0912621 86.60397339 0.10197449 C87.53073883 0.1015213 88.45750427 0.10106812 89.41235352 0.1006012 C95.73510396 0.13276326 95.73510396 0.13276326 96.84957886 1.24723816 C96.60436429 7.25499518 94.58978004 11.5449621 90.84957886 16.24723816 C87.74872315 18.3144753 87.12026205 18.49221239 83.61911011 18.44255066 C82.8166687 18.43610535 82.01422729 18.42966003 81.18746948 18.42301941 C80.35409058 18.4062616 79.52071167 18.38950378 78.66207886 18.37223816 C77.81709839 18.36321472 76.97211792 18.35419128 76.10153198 18.34489441 C74.01742643 18.32134519 71.93346669 18.28547463 69.84957886 18.24723816 C70.83957886 22.70223816 70.83957886 22.70223816 71.84957886 27.24723816 C72.56613647 27.23676453 73.28269409 27.22629089 74.02096558 27.21549988 C77.25546791 27.17402517 80.48991439 27.14793924 83.72457886 27.12223816 C84.85250854 27.10548035 85.98043823 27.08872253 87.14254761 27.07145691 C88.21891479 27.0650116 89.29528198 27.05856628 90.40426636 27.05192566 C91.39926147 27.04145203 92.39425659 27.03097839 93.41940308 27.02018738 C95.84957886 27.24723816 95.84957886 27.24723816 97.84957886 29.24723816 C97.4736144 32.72114978 95.74797759 35.41657361 93.97457886 38.37223816 C93.20500854 39.67548035 93.20500854 39.67548035 92.41989136 41.00505066 C90.84957886 43.24723816 90.84957886 43.24723816 87.84957886 45.24723816 C85.4628081 45.541764 83.06331792 45.74005986 80.66207886 45.87223816 C79.38977417 45.94700378 78.11746948 46.02176941 76.80661011 46.09880066 C75.83078979 46.14778503 74.85496948 46.19676941 73.84957886 46.24723816 C73.63043823 47.0090741 73.41129761 47.77091003 73.18551636 48.55583191 C70.99900284 55.67533323 68.31676776 61.30734962 63.84957886 67.24723816 C63.27207886 68.13411316 62.69457886 69.02098816 62.09957886 69.93473816 C53.69014581 78.57776657 40.55654544 82.86382279 28.84957886 84.24723816 C31.39362538 89.1528197 34.97650544 92.64696752 38.86129761 96.48942566 C39.54835281 97.17602264 40.23540802 97.86261963 40.94328308 98.57002258 C42.39592852 100.0196534 43.85099718 101.46685949 45.30831909 102.91178894 C47.51725185 105.10257404 49.71818584 107.30114555 51.91793823 109.50114441 C53.3360894 110.91437524 54.75469497 112.32715025 56.17379761 113.73942566 C56.8230571 114.38757233 57.47231659 115.03571899 58.14125061 115.70350647 C61.98054505 119.50394457 65.92411842 123.13491481 70.01542664 126.66293335 C73.02953638 129.26646238 75.96212021 131.94198898 78.84957886 134.68473816 C79.43352417 135.20616394 80.01746948 135.72758972 80.61911011 136.26481628 C83.59630755 139.1269698 85.25618875 141.19501813 85.53707886 145.40739441 C84.84957886 149.24723816 84.84957886 149.24723816 82.89816284 151.45402527 C78.67102691 153.94047625 75.20632605 153.82315284 70.38473511 153.77848816 C69.01834145 153.78422852 69.01834145 153.78422852 67.62434387 153.79008484 C65.70209648 153.79280094 63.77981193 153.7854609 61.8576355 153.76872253 C58.9250691 153.74733291 55.99495935 153.76852124 53.06246948 153.79411316 C51.19071931 153.79146935 49.31897066 153.78634326 47.44723511 153.77848816 C46.57518936 153.78658508 45.70314362 153.79468201 44.80467224 153.80302429 C39.34535521 153.71951555 36.15254809 152.91968143 31.84957886 149.24723816 C30.41598511 147.57267761 30.41598511 147.57267761 29.41207886 145.86051941 C29.00312378 145.18577576 28.5941687 144.5110321 28.17282104 143.81584167 C27.51781616 142.69907043 27.51781616 142.69907043 26.84957886 141.55973816 C21.01467497 131.97202697 14.84352649 122.63339696 8.59957886 113.30973816 C7.65550159 111.89808039 6.71149001 110.48637869 5.76754761 109.07463074 C4.85220627 107.70636974 3.93684208 106.33812403 3.02145386 104.96989441 C2.35962097 103.98017387 2.35962097 103.98017387 1.68441772 102.97045898 C-0.3911882 99.86824854 -2.47185387 96.76977802 -4.56643677 93.68034363 C-5.29024536 92.60800476 -6.01405396 91.53566589 -6.75979614 90.43083191 C-7.39369263 89.49682556 -8.02758911 88.56281921 -8.68069458 87.60050964 C-11.04797756 83.81010422 -11.35978446 80.70118973 -11.46292114 76.30973816 C-11.50030396 75.26946472 -11.53768677 74.22919128 -11.57620239 73.15739441 C-11.15042114 70.24723816 -11.15042114 70.24723816 -9.70901489 67.90739441 C-5.89571342 65.43311483 -2.35887952 65.6497171 2.09957886 65.62223816 C13.14466143 65.44884597 23.9140319 63.7376191 32.34957886 55.93473816 C33.70093331 53.51356143 34.31493389 51.73640503 34.94332886 49.07926941 C35.24239136 47.8146991 35.54145386 46.55012878 35.84957886 45.24723816 C35.26742111 45.25389999 34.68526337 45.26056183 34.08546448 45.26742554 C28.0349682 45.33371506 21.98457481 45.37901208 15.93380737 45.41203308 C13.67465018 45.42713418 11.41552236 45.44761658 9.15646362 45.47355652 C5.91216793 45.50988123 2.6682593 45.52695124 -0.57620239 45.54020691 C-1.58878616 45.55569077 -2.60136993 45.57117462 -3.64463806 45.58712769 C-5.05576118 45.58746758 -5.05576118 45.58746758 -6.49539185 45.58781433 C-7.73782402 45.59780708 -7.73782402 45.59780708 -9.00535583 45.60800171 C-11.66063073 45.16142957 -12.56503764 44.39295661 -14.15042114 42.24723816 C-13.98072682 38.09312113 -12.27243387 35.66869259 -9.71292114 32.49723816 C-9.09546021 31.71864441 -8.47799927 30.94005066 -7.84182739 30.13786316 C-6.15042114 28.24723816 -6.15042114 28.24723816 -4.15042114 27.24723816 C-1.5967951 27.16065247 0.92912306 27.131613 3.48239136 27.14958191 C4.61014481 27.15170433 4.61014481 27.15170433 5.76068115 27.15386963 C8.16535395 27.15947351 10.56993413 27.17202659 12.97457886 27.18473816 C14.60348376 27.18975266 16.23239013 27.19431566 17.86129761 27.19841003 C21.85742712 27.20944419 25.85348728 27.22671137 29.84957886 27.24723816 C29.18888642 24.18330286 29.18888642 24.18330286 27.02926636 23.14958191 C26.26871948 22.83118347 25.50817261 22.51278503 24.72457886 22.18473816 C23.60696167 21.70327332 23.60696167 21.70327332 22.46676636 21.21208191 C13.75158764 17.99917274 5.822861 17.85806441 -3.42971802 17.68083191 C-4.51962036 17.65118347 -5.60952271 17.62153503 -6.73245239 17.59098816 C-7.72478882 17.57229675 -8.71712524 17.55360535 -9.73953247 17.53434753 C-12.15042114 17.24723816 -12.15042114 17.24723816 -14.15042114 15.24723816 C-14.15042114 10.01385084 -10.47198989 5.99019996 -7.15042114 2.24723816 C-4.07505524 0.19699423 -3.46473368 -0.0025737 0 0 Z M-7.383214 8.54861355 C-8.28762954 10.2403811 -8.28762954 10.2403811 -8.15042114 12.24723816 C-6.48366333 12.32071472 -6.48366333 12.32071472 -4.78323364 12.39567566 C23.89273608 13.77978806 23.89273608 13.77978806 33.84957886 24.24723816 C34.00192261 26.90739441 34.00192261 26.90739441 33.84957886 29.24723816 C32.74968628 29.24611023 31.6497937 29.2449823 30.51657104 29.24382019 C26.43092411 29.24749464 22.34645791 29.29031312 18.26119995 29.34489441 C16.49402474 29.36304921 14.72670758 29.37062382 12.95944214 29.36735535 C10.41649688 29.3644965 7.87649169 29.39982236 5.33395386 29.44255066 C4.54526917 29.43345673 3.75658447 29.42436279 2.94400024 29.41499329 C0.41261307 29.41795346 0.41261307 29.41795346 -3.15042114 30.24723816 C-5.92714183 33.38886559 -7.15042114 35.02984419 -7.15042114 39.24723816 C-6.56382217 39.25754562 -5.97722321 39.26785309 -5.37284851 39.2784729 C0.70995756 39.3863101 6.7926086 39.50092572 12.87521362 39.61955261 C15.14796722 39.66297481 17.42075498 39.70464432 19.693573 39.74455261 C22.95271118 39.80207935 26.21167617 39.86582368 29.47067261 39.93083191 C30.49357895 39.9475444 31.51648529 39.9642569 32.57038879 39.98147583 C33.98173851 40.01139366 33.98173851 40.01139366 35.42160034 40.04191589 C36.25432968 40.05746017 37.08705902 40.07300446 37.94502258 40.08901978 C39.84957886 40.24723816 39.84957886 40.24723816 40.84957886 41.24723816 C41.40505027 47.57961227 40.58565743 52.02925132 36.84957886 57.24723816 C28.39427476 66.24224252 20.22862043 68.20264114 8.24411011 68.59294128 C6.13225368 68.65459175 4.02026393 68.71182011 1.90817261 68.76481628 C0.90399292 68.79897644 -0.10018677 68.8331366 -1.13479614 68.86833191 C-2.04970825 68.89338806 -2.96462036 68.91844421 -3.90725708 68.94425964 C-6.35082374 69.04357672 -6.35082374 69.04357672 -8.15042114 71.24723816 C-9.39639493 75.61232752 -9.29274448 79.93890993 -7.25540161 84.05583191 C-4.69490235 88.27544697 -1.72159276 92.19904036 1.25875854 96.12809753 C3.32388638 98.87906586 5.28931323 101.69349066 7.25558472 104.51554871 C21.41302232 126.31126852 21.41302232 126.31126852 37.84957886 146.24723816 C40.8793569 146.33595088 43.88624908 146.36243166 46.91598511 146.34489441 C47.824608 146.34347946 48.7332309 146.34206451 49.66938782 146.34060669 C52.58365106 146.33499009 55.49783867 146.32243481 58.41207886 146.30973816 C60.38278088 146.3047253 62.35348409 146.30016202 64.32418823 146.29606628 C69.16601444 146.28501527 74.00778381 146.26773954 78.84957886 146.24723816 C78.04099214 142.37736122 76.700087 140.75537541 73.84176636 137.98161316 C73.01934448 137.17337097 72.19692261 136.36512878 71.34957886 135.53239441 C70.05020386 134.27749207 70.05020386 134.27749207 68.72457886 132.99723816 C59.06621283 123.58993058 59.06621283 123.58993058 55.63473511 119.52458191 C52.30968387 115.63594617 48.69991143 112.08652246 45.04098511 108.51676941 C44.11739197 107.61210434 44.11739197 107.61210434 43.17514038 106.68916321 C40.59976675 104.16802763 38.0231809 101.64858276 35.427948 99.14787292 C33.51666892 97.30301536 31.62155866 95.4427792 29.72848511 93.57926941 C29.13797867 93.01770645 28.54747223 92.45614349 27.93907166 91.87756348 C23.93207855 87.89742342 23.93207855 87.89742342 23.48214722 84.35148621 C23.60339966 83.65708435 23.7246521 82.9626825 23.84957886 82.24723816 C28.46956586 80.67376433 33.08340912 79.17674244 37.78707886 77.87223816 C48.80274747 74.58295608 57.623507 69.42094813 63.46286011 59.29020691 C65.66573451 54.45629378 66.87759669 49.43187863 68.08786011 44.27458191 C68.84957886 41.24723816 68.84957886 41.24723816 69.84957886 40.24723816 C73.37309453 40.14516206 76.89099303 40.04852868 80.41598511 40.08122253 C84.76705844 39.97155527 84.76705844 39.97155527 88.51168823 37.96354675 C90.81501501 35.33616236 91.84957886 33.78271977 91.84957886 30.24723816 C91.19884399 30.24312927 90.54810913 30.23902039 89.87765503 30.23478699 C86.9298714 30.20189643 83.98416751 30.13126053 81.03707886 30.05973816 C80.0129187 30.05393738 78.98875854 30.0481366 77.93356323 30.04216003 C75.15242233 29.96009358 72.57063311 29.83147469 69.84957886 29.24723816 C67.75192261 26.88395691 67.75192261 26.88395691 66.84957886 24.24723816 C66.31332886 23.25723816 65.77707886 22.26723816 65.22457886 21.24723816 C63.96439754 18.49775165 63.37800614 16.19845467 62.84957886 13.24723816 C63.51489624 13.28389587 64.18021362 13.32055359 64.86569214 13.35832214 C67.90151041 13.50448334 70.93658881 13.59506255 73.97457886 13.68473816 C75.02129761 13.7433905 76.06801636 13.80204285 77.14645386 13.86247253 C82.87466526 14.07885002 82.87466526 14.07885002 87.93063354 11.76335144 C90.55358256 8.8327726 91.84957886 7.25831438 91.84957886 3.24723816 C79.54966957 3.08508138 67.25001433 2.9606855 54.94925404 2.88455296 C49.23750379 2.84801357 43.52648453 2.79844916 37.81515503 2.71916199 C32.30378217 2.64312912 26.79311254 2.60125319 21.28125572 2.58309746 C19.1780051 2.57015857 17.07479319 2.54489123 14.97184181 2.50712776 C12.02635034 2.45633595 9.08376754 2.4493132 6.13790894 2.45256042 C5.26756516 2.42739349 4.39722137 2.40222656 3.50050354 2.376297 C-2.18858532 2.44419937 -4.38878772 3.67158559 -7.383214 8.54861355 Z " fill="#5F2339" transform="translate(51.150421142578125,22.752761840820313)"/>
<path d="M0 0 C5.04955333 -0.12496991 10.09817809 -0.21497363 15.14892578 -0.2746582 C16.86165069 -0.29957583 18.57427181 -0.33352329 20.28662109 -0.37719727 C32.28757389 -0.67529224 41.95671982 -0.13062623 52.03515625 7.2109375 C56.17577891 11.6307929 59.20244008 15.18436496 61 21 C61.5878125 22.8871875 61.5878125 22.8871875 62.1875 24.8125 C64.25874107 34.03571877 63.14477766 42.48579548 59 51 C53.59875419 59.10757828 46.87691027 63.33021587 38 67 C37.18273437 67.35191406 36.36546875 67.70382813 35.5234375 68.06640625 C31.68949788 69.48484521 27.7302776 70.25087459 23.7421875 71.12109375 C20.21876391 72.23359467 20.21876391 72.23359467 18 75 C18 80.41851984 20.66455486 83.70572865 24 87.6875 C24.49693359 88.29835449 24.99386719 88.90920898 25.50585938 89.53857422 C26.51859044 90.78114726 27.53614404 92.01980611 28.55859375 93.25439453 C29.83595925 94.80133954 31.09152645 96.36622728 32.34375 97.93359375 C36.79617916 103.49106421 41.46043677 108.78871532 46.37109375 113.94189453 C48.75128824 116.47344586 50.66518764 118.77356783 52 122 C52.66 122 53.32 122 54 122 C59 127.23809524 59 127.23809524 59 132 C42.64222014 133.87495493 42.64222014 133.87495493 37.15039062 131.04785156 C33.90642588 128.46378079 31.53157215 125.16072426 29.21679688 121.76171875 C28.00941976 120.01363824 26.72929839 118.36786907 25.390625 116.71875 C23.05766018 113.84395441 20.78959294 110.9255104 18.53466797 107.98925781 C16.84863681 105.80380094 15.14633725 103.6316792 13.44140625 101.4609375 C10.44678298 97.64725843 7.48189113 93.81183357 4.52832031 89.96630859 C3.23035986 88.29637673 1.89622376 86.65466251 0.5546875 85.01953125 C-4.12817867 79.05693444 -4.90055372 74.51890885 -4 67 C-2.69546875 66.96261719 -1.3909375 66.92523438 -0.046875 66.88671875 C19.88252204 66.36168565 19.88252204 66.36168565 37 57 C43.41086405 50.09281099 45.5387507 43.62917783 45.38671875 34.23828125 C44.47650783 26.61641405 41.14494695 19.66226337 36 14 C33.63005087 12.23057672 33.63005087 12.23057672 31.0625 10.8125 C29.81146484 10.07966797 29.81146484 10.07966797 28.53515625 9.33203125 C24.16129247 7.03389943 20.42260212 5.75372307 15.48046875 5.3671875 C13.9480957 5.24150391 13.9480957 5.24150391 12.38476562 5.11328125 C11.32966797 5.03464844 10.27457031 4.95601562 9.1875 4.875 C8.11306641 4.78863281 7.03863281 4.70226563 5.93164062 4.61328125 C3.28823357 4.40180869 0.64447211 4.19762846 -2 4 C-1.34 2.68 -0.68 1.36 0 0 Z " fill="#FEDE32" transform="translate(50,28)"/>
<path d="M0 0 C0.92702728 -0.00058411 1.85405457 -0.00116821 2.80917358 -0.00177002 C5.87747467 0.00101973 8.9448078 0.03215409 12.01293945 0.06347656 C14.13856984 0.07093577 16.26420709 0.07663021 18.3898468 0.08062744 C23.98779242 0.09590888 29.5853237 0.1352126 35.18310547 0.17944336 C40.89390456 0.2203418 46.60477053 0.23862687 52.31567383 0.25878906 C63.52353829 0.30170419 74.73109506 0.36998608 85.9387207 0.45410156 C85.6087207 1.77410156 85.2787207 3.09410156 84.9387207 4.45410156 C84.4437207 2.96910156 84.4437207 2.96910156 83.9387207 1.45410156 C82.9487207 1.45410156 81.9587207 1.45410156 80.9387207 1.45410156 C80.6087207 2.77410156 80.2787207 4.09410156 79.9387207 5.45410156 C71.6887207 5.45410156 63.4387207 5.45410156 54.9387207 5.45410156 C54.4437207 3.47410156 54.4437207 3.47410156 53.9387207 1.45410156 C46.01931764 1.64583293 38.10055128 1.85328967 30.18210793 2.0809679 C26.50542631 2.18618565 22.82876405 2.2859315 19.15161133 2.37329102 C15.60449375 2.45776077 12.0580338 2.55644838 8.51157761 2.66510582 C7.15690158 2.70408966 5.8020668 2.73790374 4.44713211 2.76651955 C2.55287294 2.80739973 0.65907476 2.86818703 -1.23461914 2.92993164 C-2.85344498 2.97323357 -2.85344498 2.97323357 -4.50497437 3.01741028 C-5.34855499 3.1615184 -6.19213562 3.30562653 -7.0612793 3.45410156 C-8.0512793 4.93910156 -8.0512793 4.93910156 -9.0612793 6.45410156 C-8.09448242 6.43089844 -7.12768555 6.40769531 -6.1315918 6.38378906 C7.38056869 6.19649179 17.07157551 8.01289883 28.6887207 15.14160156 C35.2082434 21.84222211 38.93921845 29.98596762 39.3137207 39.26660156 C39.15164375 47.45148775 36.3089436 53.82515471 30.7590332 59.82128906 C18.46509334 70.84890036 4.43639043 69.74736169 -11.0612793 69.45410156 C-11.84641442 81.07437634 -5.15212025 88.00153852 1.9387207 96.45410156 C1.2787207 97.44410156 0.6187207 98.43410156 -0.0612793 99.45410156 C-2.20948261 96.49748253 -4.35443544 93.53852063 -6.4987793 90.57910156 C-7.11043945 89.73734375 -7.72209961 88.89558594 -8.35229492 88.02832031 C-8.9355957 87.22265625 -9.51889648 86.41699219 -10.11987305 85.58691406 C-10.65926514 84.84328613 -11.19865723 84.0996582 -11.75439453 83.33349609 C-14.04411298 80.04071585 -14.22251117 77.94685651 -14.2487793 73.95410156 C-14.26295898 72.97441406 -14.27713867 71.99472656 -14.29174805 70.98535156 C-14.0612793 68.45410156 -14.0612793 68.45410156 -12.0612793 66.45410156 C-9.84985352 66.16699219 -9.84985352 66.16699219 -7.1159668 66.11035156 C-6.12081055 66.08070312 -5.1256543 66.05105469 -4.1003418 66.02050781 C-3.05620117 65.99859375 -2.01206055 65.97667969 -0.9362793 65.95410156 C10.37389352 65.7113327 20.19209326 64.9768365 28.7043457 56.74707031 C33.99960561 50.84773949 35.33160157 46.311719 34.9387207 38.45410156 C33.35396018 36.86934104 31.70980069 37.28982839 29.51074219 37.2487793 C28.09939247 37.21886147 28.09939247 37.21886147 26.65953064 37.18833923 C25.6366243 37.17162674 24.61371796 37.15491425 23.55981445 37.13769531 C21.99711571 37.10652367 21.99711571 37.10652367 20.40284729 37.07472229 C17.06070823 37.00911099 13.71848785 36.95028826 10.3762207 36.89160156 C8.11644652 36.84842734 5.85668069 36.80481343 3.59692383 36.76074219 C-1.9557235 36.6534179 -7.5084525 36.55167344 -13.0612793 36.45410156 C-11.85376186 29.9105131 -11.85376186 29.9105131 -9.0612793 27.45410156 C-6.14699787 27.0283922 -3.59389826 26.84924483 -0.67456055 26.84472656 C0.14244827 26.82819031 0.95945709 26.81165405 1.80122375 26.7946167 C4.40963184 26.74604816 7.01745664 26.72474698 9.6262207 26.70410156 C11.3951304 26.67594915 13.16401282 26.64602275 14.93286133 26.61425781 C19.26809977 26.54028728 23.60301273 26.49076717 27.9387207 26.45410156 C28.18437839 22.90999059 28.18437839 22.90999059 26.79418945 19.79394531 C17.27113877 11.78744602 6.01570921 10.51960825 -5.9987793 9.89160156 C-6.77801758 9.84841797 -7.55725586 9.80523437 -8.36010742 9.76074219 C-10.26035047 9.65582079 -12.16079599 9.55457706 -14.0612793 9.45410156 C-11.1033254 1.26284461 -8.73003333 -0.14306849 0 0 Z " fill="#F2B11D" transform="translate(57.061279296875,25.5458984375)"/>
<path d="M0 0 C0.92702728 -0.00058411 1.85405457 -0.00116821 2.80917358 -0.00177002 C5.87747467 0.00101973 8.9448078 0.03215409 12.01293945 0.06347656 C14.13856984 0.07093577 16.26420709 0.07663021 18.3898468 0.08062744 C23.98779242 0.09590888 29.5853237 0.1352126 35.18310547 0.17944336 C40.89390456 0.2203418 46.60477053 0.23862687 52.31567383 0.25878906 C63.52353829 0.30170419 74.73109506 0.36998608 85.9387207 0.45410156 C85.6087207 1.77410156 85.2787207 3.09410156 84.9387207 4.45410156 C84.4437207 2.96910156 84.4437207 2.96910156 83.9387207 1.45410156 C82.9487207 1.45410156 81.9587207 1.45410156 80.9387207 1.45410156 C80.6087207 2.77410156 80.2787207 4.09410156 79.9387207 5.45410156 C71.6887207 5.45410156 63.4387207 5.45410156 54.9387207 5.45410156 C54.4437207 3.47410156 54.4437207 3.47410156 53.9387207 1.45410156 C46.01931764 1.64583293 38.10055128 1.85328967 30.18210793 2.0809679 C26.50542631 2.18618565 22.82876405 2.2859315 19.15161133 2.37329102 C15.60449375 2.45776077 12.0580338 2.55644838 8.51157761 2.66510582 C7.15690158 2.70408966 5.8020668 2.73790374 4.44713211 2.76651955 C2.55287294 2.80739973 0.65907476 2.86818703 -1.23461914 2.92993164 C-2.85344498 2.97323357 -2.85344498 2.97323357 -4.50497437 3.01741028 C-5.34855499 3.1615184 -6.19213562 3.30562653 -7.0612793 3.45410156 C-8.0512793 4.93910156 -8.0512793 4.93910156 -9.0612793 6.45410156 C-8.09448242 6.43089844 -7.12768555 6.40769531 -6.1315918 6.38378906 C2.59679243 6.26280156 10.6000697 6.67455123 18.9387207 9.45410156 C18.6087207 10.44410156 18.2787207 11.43410156 17.9387207 12.45410156 C16.7630957 12.30972656 15.5874707 12.16535156 14.3762207 12.01660156 C13.71493164 11.93539062 13.05364258 11.85417969 12.37231445 11.77050781 C10.48453693 11.52506643 8.60107634 11.24631215 6.7199707 10.95410156 C2.47905225 10.39331896 -1.72939388 10.11476567 -5.9987793 9.89160156 C-6.77801758 9.84841797 -7.55725586 9.80523437 -8.36010742 9.76074219 C-10.26035047 9.65582079 -12.16079599 9.55457706 -14.0612793 9.45410156 C-11.1033254 1.26284461 -8.73003333 -0.14306849 0 0 Z " fill="#FDC51F" transform="translate(57.061279296875,25.5458984375)"/>
<path d="M0 0 C0.66 0.66 1.32 1.32 2 2 C1.64700993 5.44165321 0.95418308 7.06872538 -1 10 C0.11117187 9.97679687 1.22234375 9.95359375 2.3671875 9.9296875 C13.76547666 9.76170731 23.35235374 10.66207004 34 15 C33.01 15.33 32.02 15.66 31 16 C30.34 15.67 29.68 15.34 29 15 C29 15.66 29 16.32 29 17 C27.78183594 16.84402344 26.56367187 16.68804687 25.30859375 16.52734375 C18.10588973 15.72453502 10.86323595 15.65098959 3.62304688 15.48242188 C2.54216797 15.44826172 1.46128906 15.41410156 0.34765625 15.37890625 C-0.63195068 15.3538501 -1.61155762 15.32879395 -2.62084961 15.30297852 C-5 15 -5 15 -7 13 C-7 7.67899997 -3.18550405 3.92586585 0 0 Z " fill="#602438" transform="translate(44,25)"/>
<path d="M0 0 C3.96 0 7.92 0 12 0 C12 0.33 12 0.66 12 1 C18.93 1.495 18.93 1.495 26 2 C25.67 2.66 25.34 3.32 25 4 C19.06 4 13.12 4 7 4 C7.66 6.97 8.32 9.94 9 13 C16.59 13 24.18 13 32 13 C27.42822019 16.04785321 22.87957311 15.40801391 17.5 15.4375 C15.91251953 15.48680664 15.91251953 15.48680664 14.29296875 15.53710938 C11.44099072 15.55704061 8.80532876 15.51697826 6 15 C3.88671875 12.6640625 3.88671875 12.6640625 3 10 C2.443125 8.989375 1.88625 7.97875 1.3125 6.9375 C0 4 0 4 0 0 Z " fill="#581C38" transform="translate(114,37)"/>
<path d="M0 0 C12.54 0 25.08 0 38 0 C38.495 1.98 38.495 1.98 39 4 C25.8 4 12.6 4 -1 4 C-0.67 2.68 -0.34 1.36 0 0 Z " fill="#FEE12F" transform="translate(50,54)"/>
<path d="M0 0 C5.83077481 1.08709361 9.29740251 2.02463462 13 7 C13.375 9.75 13.375 9.75 13 12 C10.97865049 14.02134951 6.87203886 13.18793109 4.09765625 13.203125 C3.30475693 13.20882507 2.5118576 13.21452515 1.69493103 13.22039795 C0.01448914 13.22986098 -1.66597142 13.23638709 -3.34643555 13.24023438 C-5.92334177 13.24994664 -8.49945285 13.2809594 -11.07617188 13.3125 C-12.70572441 13.31902907 -14.33528267 13.32427992 -15.96484375 13.328125 C-17.12583839 13.3466452 -17.12583839 13.3466452 -18.31028748 13.36553955 C-20.48413086 13.35644531 -20.48413086 13.35644531 -24 13 C-24.66 12.01 -25.32 11.02 -26 10 C-14.78 10 -3.56 10 8 10 C7.33372488 6.88403088 7.33372488 6.88403088 4.93359375 5.83203125 C4.10988281 5.49558594 3.28617188 5.15914062 2.4375 4.8125 C1.61121094 4.46832031 0.78492187 4.12414063 -0.06640625 3.76953125 C-0.70449219 3.51558594 -1.34257813 3.26164062 -2 3 C-1.34 2.67 -0.68 2.34 0 2 C0 1.34 0 0.68 0 0 Z " fill="#6D353D" transform="translate(73,40)"/>
<path d="M0 0 C1.03688965 0.01047363 2.0737793 0.02094727 3.14208984 0.03173828 C4.26357422 0.03818359 5.38505859 0.04462891 6.54052734 0.05126953 C7.71615234 0.06802734 8.89177734 0.08478516 10.10302734 0.10205078 C11.28638672 0.11107422 12.46974609 0.12009766 13.68896484 0.12939453 C16.61885257 0.15302266 19.54834075 0.18596564 22.47802734 0.22705078 C22.47802734 0.55705078 22.47802734 0.88705078 22.47802734 1.22705078 C14.88802734 1.55705078 7.29802734 1.88705078 -0.52197266 2.22705078 C-0.85197266 3.21705078 -1.18197266 4.20705078 -1.52197266 5.22705078 C6.06802734 5.22705078 13.65802734 5.22705078 21.47802734 5.22705078 C21.47802734 5.55705078 21.47802734 5.88705078 21.47802734 6.22705078 C27.08802734 6.55705078 32.69802734 6.88705078 38.47802734 7.22705078 C38.47802734 7.55705078 38.47802734 7.88705078 38.47802734 8.22705078 C23.62802734 8.22705078 8.77802734 8.22705078 -6.52197266 8.22705078 C-3.89655682 0.35080328 -3.89655682 0.35080328 0 0 Z " fill="#FCC11B" transform="translate(50.52197265625,52.77294921875)"/>
<path d="M0 0 C8.91 0 17.82 0 27 0 C26.67 0.99 26.34 1.98 26 3 C17.75 3 9.5 3 1 3 C0.67 2.01 0.34 1.02 0 0 Z " fill="#FEDE32" transform="translate(111,28)"/>
<path d="M0 0 C0 3.51548265 -0.97552195 4.93166053 -3.28515625 7.5144043 C-10.72555779 13.9601394 -19.88693592 13.37312424 -29.125 12.75 C-30.36765625 12.68425781 -31.6103125 12.61851563 -32.890625 12.55078125 C-35.9288067 12.38718685 -38.96425343 12.20319247 -42 12 C-42 11.67 -42 11.34 -42 11 C-41.34515625 10.98018066 -40.6903125 10.96036133 -40.015625 10.93994141 C-37.01005552 10.84389478 -34.00510669 10.73454216 -31 10.625 C-29.97003906 10.5940625 -28.94007812 10.563125 -27.87890625 10.53125 C-20.3583723 10.24384106 -13.1428611 9.85270893 -6.6875 5.5625 C-6.05199219 5.15128906 -5.41648438 4.74007812 -4.76171875 4.31640625 C-3.00282398 3.00211016 -1.50843689 1.59198109 0 0 Z " fill="#E09E23" transform="translate(87,81)"/>
<path d="M0 0 C4.97093824 0.41153737 9.44508386 0.79600832 14 3 C13.01 3.33 12.02 3.66 11 4 C10.34 3.67 9.68 3.34 9 3 C9 3.66 9 4.32 9 5 C7.77410156 4.84660156 6.54820313 4.69320312 5.28515625 4.53515625 C-0.65256546 3.87540939 -6.59492399 3.65692263 -12.5625 3.4375 C-13.66658203 3.39431641 -14.77066406 3.35113281 -15.90820312 3.30664062 C-18.60537185 3.20155613 -21.30261703 3.09940587 -24 3 C-24 2.67 -24 2.34 -24 2 C-16.08 1.67 -8.16 1.34 0 1 C0 0.67 0 0.34 0 0 Z " fill="#551831" transform="translate(64,37)"/>
<path d="M0 0 C8.25 0 16.5 0 25 0 C21.79593538 2.13604308 21.00399253 2.24208908 17.33203125 2.1953125 C16.43935547 2.18886719 15.54667969 2.18242188 14.62695312 2.17578125 C13.23379883 2.15064453 13.23379883 2.15064453 11.8125 2.125 C10.87212891 2.11597656 9.93175781 2.10695313 8.96289062 2.09765625 C6.64181843 2.07409207 4.32087711 2.03822121 2 2 C2 4.97 2 7.94 2 11 C0 7 0 7 0 0 Z " fill="#FCC11C" transform="translate(44,93)"/>
<path d="M0 0 C4.07376031 1.61010527 6.76507069 4.53822271 9.75 7.625 C10.25660156 8.140625 10.76320313 8.65625 11.28515625 9.1875 C12.52803902 10.45383339 13.76465276 11.7263144 15 13 C14.01 14.485 14.01 14.485 13 16 C13 15.34 13 14.68 13 14 C12.43796875 13.76152344 11.8759375 13.52304688 11.296875 13.27734375 C8.49478586 11.71903908 6.52106593 9.82243325 4.25 7.5625 C3.45078125 6.78003906 2.6515625 5.99757813 1.828125 5.19140625 C0 3 0 3 0 0 Z " fill="#632E46" transform="translate(83,114)"/>
<path d="M0 0 C-0.54876323 3.76651128 -2.00763849 5.26652261 -4.875 7.6875 C-5.57367188 8.28949219 -6.27234375 8.89148438 -6.9921875 9.51171875 C-9 11 -9 11 -12 12 C-11.40323978 8.70326367 -10.31828226 6.8276819 -8.125 4.3125 C-7.61195312 3.71050781 -7.09890625 3.10851562 -6.5703125 2.48828125 C-4.53523331 0.55951217 -2.79558969 0 0 0 Z " fill="#591B34" transform="translate(89,77)"/>
<path d="M0 0 C5.94 0 11.88 0 18 0 C17.67 0.99 17.34 1.98 17 3 C11.39 3 5.78 3 0 3 C0 2.01 0 1.02 0 0 Z " fill="#FED732" transform="translate(121,55)"/>
<path d="M0 0 C0.99 0.66 1.98 1.32 3 2 C2.42655063 4.86724686 2.1385485 5.8614515 0 8 C-0.33 7.34 -0.66 6.68 -1 6 C-1.66 6 -2.32 6 -3 6 C-3 5.01 -3 4.02 -3 3 C-10.26 3 -17.52 3 -25 3 C-25 2.67 -25 2.34 -25 2 C-24.34926514 1.97494385 -23.69853027 1.9498877 -23.02807617 1.92407227 C-20.08101954 1.80806298 -17.1342787 1.68535885 -14.1875 1.5625 C-13.16333984 1.52318359 -12.13917969 1.48386719 -11.08398438 1.44335938 C-10.10107422 1.40146484 -9.11816406 1.35957031 -8.10546875 1.31640625 C-7.19949951 1.27974854 -6.29353027 1.24309082 -5.36010742 1.20532227 C-2.84951218 1.0791795 -2.84951218 1.0791795 0 0 Z " fill="#7D4035" transform="translate(146,50)"/>
<path d="M0 0 C5.82371483 0.07371791 11.47330582 0.16372914 17.20703125 1.23046875 C17.20703125 1.56046875 17.20703125 1.89046875 17.20703125 2.23046875 C15.29277344 2.30394531 15.29277344 2.30394531 13.33984375 2.37890625 C11.67055053 2.45393066 10.00128079 2.52947863 8.33203125 2.60546875 C7.06939453 2.651875 7.06939453 2.651875 5.78125 2.69921875 C4.57275391 2.75722656 4.57275391 2.75722656 3.33984375 2.81640625 C2.59621582 2.84782715 1.85258789 2.87924805 1.08642578 2.91162109 C-1.03307849 3.08466426 -1.03307849 3.08466426 -2.79296875 5.23046875 C-3.19344319 7.55322052 -3.53267915 9.88786232 -3.79296875 12.23046875 C-4.12296875 12.23046875 -4.45296875 12.23046875 -4.79296875 12.23046875 C-4.84692353 10.60583033 -4.8857407 8.98068334 -4.91796875 7.35546875 C-4.94117188 6.45054688 -4.964375 5.545625 -4.98828125 4.61328125 C-4.68924632 0.96505515 -3.56676136 0.29432017 0 0 Z " fill="#511231" transform="translate(45.79296875,89.76953125)"/>
<path d="M0 0 C0.66 0.99 1.32 1.98 2 3 C1.34 3.66 0.68 4.32 0 5 C1.05058594 5.04898438 2.10117187 5.09796875 3.18359375 5.1484375 C17.9857047 5.90801719 17.9857047 5.90801719 25 8 C25.33 8.66 25.66 9.32 26 10 C25.33097656 9.86722656 24.66195312 9.73445313 23.97265625 9.59765625 C14.99993726 7.94763947 6.09489048 7.40948559 -3 7 C-1.125 2.25 -1.125 2.25 0 0 Z " fill="#ECB725" transform="translate(46,28)"/>
<path d="M0 0 C9.9 0 19.8 0 30 0 C30 1.32 30 2.64 30 4 C28.68 4 27.36 4 26 4 C25.67 3.34 25.34 2.68 25 2 C16.75 1.67 8.5 1.34 0 1 C0 0.67 0 0.34 0 0 Z " fill="#4D0E31" transform="translate(118,24)"/>
<path d="M0 0 C2 1.1875 2 1.1875 4 3 C4.25 5.6875 4.25 5.6875 4 8 C2.35 8 0.7 8 -1 8 C-1.33 6.02 -1.66 4.04 -2 2 C-1.34 2 -0.68 2 0 2 C0 1.34 0 0.68 0 0 Z " fill="#5C2038" transform="translate(82,44)"/>
<path d="M0 0 C0.33 0 0.66 0 1 0 C1.99 4.29 2.98 8.58 4 13 C3.01 13 2.02 13 1 13 C-0.32229189 10.35541621 -0.09677194 8.32238699 -0.0625 5.375 C-0.05347656 4.37210937 -0.04445312 3.36921875 -0.03515625 2.3359375 C-0.02355469 1.56507812 -0.01195312 0.79421875 0 0 Z " fill="#E8A822" transform="translate(43,94)"/>
<path d="M0 0 C0.625 1.875 0.625 1.875 1 4 C0.34 4.66 -0.32 5.32 -1 6 C-1.33 5.34 -1.66 4.68 -2 4 C-3.32 4.99 -4.64 5.98 -6 7 C-4.52307692 2.32307692 -4.52307692 2.32307692 -1.875 0.6875 C-1.25625 0.460625 -0.6375 0.23375 0 0 Z " fill="#5B1D33" transform="translate(145,55)"/>
<path d="M0 0 C2.97 0.495 2.97 0.495 6 1 C5.67 1.66 5.34 2.32 5 3 C1.9375 3.625 1.9375 3.625 -1 4 C-0.67 2.68 -0.34 1.36 0 0 Z " fill="#561936" transform="translate(94,99)"/>
<path d="M0 0 C1.65 0 3.3 0 5 0 C5 1.32 5 2.64 5 4 C3.68 4 2.36 4 1 4 C0.67 2.68 0.34 1.36 0 0 Z " fill="#541733" transform="translate(143,24)"/>
</svg>
